<svg width="16" height="17" viewBox="0 0 16 17" fill="none" xmlns="http://www.w3.org/2000/svg">
<path d="M8 2.01605C9.16 2.01605 10.1 3.01346 10.1 4.24431C10.1 5.47516 9.16 6.47258 8 6.47258C6.84 6.47258 5.9 5.47516 5.9 4.24431C5.9 3.01346 6.84 2.01605 8 2.01605ZM8 11.5658C10.97 11.5658 14.1 13.1149 14.1 13.794V14.9612H1.9V13.794C1.9 13.1149 5.03 11.5658 8 11.5658ZM8 0C5.79 0 4 1.89933 4 4.24431C4 6.58929 5.79 8.48862 8 8.48862C10.21 8.48862 12 6.58929 12 4.24431C12 1.89933 10.21 0 8 0ZM8 9.5497C5.33 9.5497 0 10.9715 0 13.794V16.9772H16V13.794C16 10.9715 10.67 9.5497 8 9.5497Z" fill="#424242"/>
</svg>
