<svg width="103" height="21" viewBox="0 0 295 69" fill="none" xmlns="http://www.w3.org/2000/svg">
<path d="M5.51404 13.2598H19.4501V62.4952H5.51404V13.2598Z" fill="#4985FF"/>
<path d="M43.3714 24.3026H28.2388V13.2598H72.3697V24.3026H57.3076V62.4952H43.3714V24.3026Z" fill="#4985FF"/>
<path d="M104.957 63.48C99.796 63.48 95.1507 62.4014 91.0213 60.2445C86.939 58.0406 83.7249 54.9928 81.3787 51.1009C79.0327 47.209 77.8596 42.801 77.8596 37.8775C77.8596 32.9542 79.0327 28.5462 81.3787 24.6544C83.7249 20.7624 86.939 17.7379 91.0213 15.581C95.1507 13.3771 99.796 12.2751 104.957 12.2751C109.462 12.2751 113.521 13.0723 117.134 14.6666C120.747 16.2609 123.75 18.5585 126.143 21.5595L117.275 29.5779C114.084 25.7329 110.213 23.8103 105.661 23.8103C102.987 23.8103 100.594 24.3965 98.482 25.5687C96.4176 26.741 94.7987 28.4057 93.6256 30.5626C92.4996 32.6727 91.9364 35.1111 91.9364 37.8775C91.9364 40.6441 92.4996 43.106 93.6256 45.2629C94.7987 47.373 96.4176 49.0143 98.482 50.1865C100.594 51.3587 102.987 51.9449 105.661 51.9449C110.213 51.9449 114.084 50.0223 117.275 46.1773L126.143 54.1957C123.75 57.1966 120.747 59.4943 117.134 61.0885C113.521 62.683 109.462 63.48 104.957 63.48Z" fill="#4985FF"/>
<path d="M159.69 63.48C154.482 63.48 149.79 62.378 145.614 60.1741C141.485 57.9703 138.223 54.9224 135.83 51.0305C133.484 47.1386 132.311 42.7544 132.311 37.8775C132.311 33.0008 133.484 28.6166 135.83 24.7247C138.223 20.8327 141.485 17.7848 145.614 15.581C149.79 13.3771 154.482 12.2751 159.69 12.2751C164.899 12.2751 169.568 13.3771 173.697 15.581C177.873 17.7848 181.134 20.8327 183.48 24.7247C185.874 28.6166 187.07 33.0008 187.07 37.8775C187.07 42.7544 185.874 47.1386 183.48 51.0305C181.134 54.9224 177.873 57.9703 173.697 60.1741C169.568 62.378 164.899 63.48 159.69 63.48ZM159.69 51.9449C162.178 51.9449 164.43 51.3587 166.447 50.1865C168.465 49.0143 170.06 47.373 171.234 45.2629C172.407 43.106 172.993 40.6441 172.993 37.8775C172.993 35.1111 172.407 32.6727 171.234 30.5626C170.06 28.4057 168.465 26.741 166.447 25.5687C164.43 24.3965 162.178 23.8103 159.69 23.8103C157.204 23.8103 154.951 24.3965 152.934 25.5687C150.916 26.741 149.321 28.4057 148.147 30.5626C146.975 32.6727 146.388 35.1111 146.388 37.8775C146.388 40.6441 146.975 43.106 148.147 45.2629C149.321 47.373 150.916 49.0143 152.934 50.1865C154.951 51.3587 157.204 51.9449 159.69 51.9449Z" fill="#4985FF"/>
<path d="M207.688 24.3026H192.556V13.2598H236.686V24.3026H221.624V62.4952H207.688V24.3026Z" fill="#4985FF"/>
<path d="M270.623 44.8408V62.4952H256.687V44.6297L237.894 13.2598H252.605L264.289 32.8133L275.971 13.2598H289.486L270.623 44.8408Z" fill="#4985FF"/>
<path d="M128.5 5.52002L151.739 18.7746L133.015 31.8766L128.5 5.52002Z" fill="#4985FF"/>
<path d="M191.401 5.72681L166.861 20.4626L185.938 33.8113L191.401 5.72681Z" fill="#4985FF"/>
<path d="M5.51404 11.04H19.4501V60.2754H5.51404V11.04Z" fill="#282A3D"/>
<path d="M43.3714 22.0829H28.2388V11.04H72.3697V22.0829H57.3076V60.2754H43.3714V22.0829Z" fill="#282A3D"/>
</svg>
