<svg width="530" height="164" viewBox="0 0 530 164" fill="none" xmlns="http://www.w3.org/2000/svg">
<rect width="530" height="164" rx="12" fill="#F7F7F7"/>
<rect x="354.5" y="107.5" width="155" height="36" rx="11.5" fill="white" stroke="#4985FF"/>
<path d="M390.197 132V120.64H398.773V132H397.653V121.632H391.317V132H390.197ZM404.947 132.16C404.147 132.16 403.433 131.963 402.803 131.568C402.185 131.173 401.699 130.651 401.347 130C400.995 129.339 400.819 128.624 400.819 127.856C400.819 127.077 400.995 126.363 401.347 125.712C401.71 125.051 402.201 124.523 402.819 124.128C403.449 123.723 404.158 123.52 404.947 123.52C405.747 123.52 406.457 123.723 407.075 124.128C407.705 124.523 408.195 125.051 408.547 125.712C408.91 126.363 409.091 127.077 409.091 127.856C409.091 128.624 408.915 129.339 408.563 130C408.211 130.651 407.721 131.173 407.091 131.568C406.473 131.963 405.758 132.16 404.947 132.16ZM401.923 127.872C401.923 128.491 402.057 129.056 402.323 129.568C402.601 130.069 402.969 130.469 403.427 130.768C403.886 131.056 404.393 131.2 404.947 131.2C405.502 131.2 406.009 131.051 406.467 130.752C406.926 130.453 407.294 130.048 407.571 129.536C407.849 129.024 407.987 128.459 407.987 127.84C407.987 127.221 407.849 126.656 407.571 126.144C407.294 125.632 406.926 125.227 406.467 124.928C406.009 124.629 405.502 124.48 404.947 124.48C404.403 124.48 403.902 124.635 403.443 124.944C402.985 125.243 402.617 125.648 402.339 126.16C402.062 126.672 401.923 127.243 401.923 127.872ZM409.983 133.936V131.024H410.127C410.447 131.024 410.735 130.885 410.991 130.608C411.247 130.331 411.455 129.829 411.615 129.104C411.786 128.368 411.887 127.328 411.919 125.984L411.999 123.664H417.423V131.024H418.543V133.936H417.567V132H410.943V133.936H409.983ZM411.775 131.024H416.335V124.64H412.975L412.927 126.08C412.874 127.573 412.751 128.704 412.559 129.472C412.367 130.229 412.106 130.747 411.775 131.024ZM424.448 132.16C423.755 132.16 423.131 131.979 422.576 131.616C422.032 131.253 421.6 130.805 421.28 130.272V135.408H420.192V123.664H421.168V125.28C421.499 124.757 421.936 124.336 422.48 124.016C423.035 123.685 423.632 123.52 424.272 123.52C424.848 123.52 425.376 123.643 425.856 123.888C426.336 124.123 426.752 124.443 427.104 124.848C427.467 125.253 427.744 125.717 427.936 126.24C428.128 126.752 428.224 127.285 428.224 127.84C428.224 128.619 428.064 129.339 427.744 130C427.435 130.651 426.992 131.173 426.416 131.568C425.851 131.963 425.195 132.16 424.448 132.16ZM424.144 131.2C424.752 131.2 425.275 131.04 425.712 130.72C426.16 130.389 426.507 129.968 426.752 129.456C426.998 128.944 427.12 128.405 427.12 127.84C427.12 127.243 426.982 126.688 426.704 126.176C426.427 125.664 426.054 125.253 425.584 124.944C425.126 124.635 424.603 124.48 424.016 124.48C423.654 124.48 423.27 124.576 422.864 124.768C422.47 124.949 422.118 125.2 421.808 125.52C421.51 125.829 421.334 126.171 421.28 126.544V129.104C421.526 129.691 421.91 130.187 422.432 130.592C422.955 130.997 423.526 131.2 424.144 131.2ZM433.619 132.16C432.819 132.16 432.105 131.963 431.475 131.568C430.857 131.173 430.371 130.651 430.019 130C429.667 129.339 429.491 128.624 429.491 127.856C429.491 127.077 429.667 126.363 430.019 125.712C430.382 125.051 430.873 124.523 431.491 124.128C432.121 123.723 432.83 123.52 433.619 123.52C434.419 123.52 435.129 123.723 435.747 124.128C436.377 124.523 436.867 125.051 437.219 125.712C437.582 126.363 437.763 127.077 437.763 127.856C437.763 128.624 437.587 129.339 437.235 130C436.883 130.651 436.393 131.173 435.763 131.568C435.145 131.963 434.43 132.16 433.619 132.16ZM430.595 127.872C430.595 128.491 430.729 129.056 430.995 129.568C431.273 130.069 431.641 130.469 432.099 130.768C432.558 131.056 433.065 131.2 433.619 131.2C434.174 131.2 434.681 131.051 435.139 130.752C435.598 130.453 435.966 130.048 436.243 129.536C436.521 129.024 436.659 128.459 436.659 127.84C436.659 127.221 436.521 126.656 436.243 126.144C435.966 125.632 435.598 125.227 435.139 124.928C434.681 124.629 434.174 124.48 433.619 124.48C433.075 124.48 432.574 124.635 432.115 124.944C431.657 125.243 431.289 125.648 431.011 126.16C430.734 126.672 430.595 127.243 430.595 127.872ZM443.407 132.16C442.063 132.16 441.044 131.749 440.351 130.928C439.668 130.096 439.327 128.949 439.327 127.488C439.327 126.453 439.412 125.579 439.583 124.864C439.753 124.149 440.004 123.557 440.335 123.088C440.665 122.619 441.071 122.24 441.551 121.952C442.041 121.653 442.601 121.408 443.231 121.216L446.735 120.064L446.831 121.008L443.455 122.112C442.815 122.336 442.276 122.608 441.839 122.928C441.412 123.248 441.076 123.669 440.831 124.192C440.596 124.704 440.447 125.36 440.383 126.16C440.649 125.541 441.071 125.067 441.647 124.736C442.233 124.395 442.905 124.224 443.663 124.224C444.473 124.224 445.161 124.389 445.727 124.72C446.303 125.051 446.74 125.509 447.039 126.096C447.337 126.683 447.487 127.36 447.487 128.128C447.487 129.344 447.135 130.32 446.431 131.056C445.737 131.792 444.729 132.16 443.407 132.16ZM443.407 131.2C444.356 131.2 445.087 130.928 445.599 130.384C446.121 129.829 446.383 129.093 446.383 128.176C446.383 127.28 446.127 126.549 445.615 125.984C445.103 125.419 444.367 125.136 443.407 125.136C442.852 125.136 442.351 125.253 441.903 125.488C441.455 125.723 441.097 126.064 440.831 126.512C440.575 126.96 440.447 127.515 440.447 128.176C440.447 129.051 440.697 129.776 441.199 130.352C441.711 130.917 442.447 131.2 443.407 131.2ZM449.301 132V123.664H450.389V127.248H455.157V123.664H456.245V132H455.157V128.224H450.389V132H449.301ZM462.245 132.16C461.445 132.16 460.731 131.963 460.101 131.568C459.472 131.173 458.976 130.645 458.613 129.984C458.251 129.323 458.069 128.597 458.069 127.808C458.069 127.029 458.245 126.315 458.597 125.664C458.96 125.013 459.456 124.496 460.085 124.112C460.715 123.717 461.429 123.52 462.229 123.52C463.051 123.52 463.771 123.717 464.389 124.112C465.008 124.507 465.488 125.029 465.829 125.68C466.181 126.32 466.357 127.024 466.357 127.792C466.357 127.963 466.352 128.107 466.341 128.224H459.205C459.259 128.821 459.429 129.355 459.717 129.824C460.005 130.283 460.373 130.651 460.821 130.928C461.269 131.195 461.76 131.328 462.293 131.328C462.837 131.328 463.349 131.189 463.829 130.912C464.309 130.635 464.651 130.272 464.853 129.824L465.797 130.08C465.627 130.485 465.36 130.848 464.997 131.168C464.645 131.477 464.235 131.723 463.765 131.904C463.296 132.075 462.789 132.16 462.245 132.16ZM459.173 127.44H465.333C465.291 126.843 465.125 126.315 464.837 125.856C464.549 125.387 464.181 125.024 463.733 124.768C463.285 124.501 462.789 124.368 462.245 124.368C461.701 124.368 461.205 124.501 460.757 124.768C460.309 125.024 459.941 125.387 459.653 125.856C459.376 126.315 459.216 126.843 459.173 127.44ZM471.636 132.16C470.836 132.16 470.121 131.963 469.492 131.568C468.863 131.173 468.367 130.645 468.004 129.984C467.641 129.323 467.46 128.597 467.46 127.808C467.46 127.029 467.636 126.315 467.988 125.664C468.351 125.013 468.847 124.496 469.476 124.112C470.105 123.717 470.82 123.52 471.62 123.52C472.441 123.52 473.161 123.717 473.78 124.112C474.399 124.507 474.879 125.029 475.22 125.68C475.572 126.32 475.748 127.024 475.748 127.792C475.748 127.963 475.743 128.107 475.732 128.224H468.596C468.649 128.821 468.82 129.355 469.108 129.824C469.396 130.283 469.764 130.651 470.212 130.928C470.66 131.195 471.151 131.328 471.684 131.328C472.228 131.328 472.74 131.189 473.22 130.912C473.7 130.635 474.041 130.272 474.244 129.824L475.188 130.08C475.017 130.485 474.751 130.848 474.388 131.168C474.036 131.477 473.625 131.723 473.156 131.904C472.687 132.075 472.18 132.16 471.636 132.16ZM468.564 127.44H474.724C474.681 126.843 474.516 126.315 474.228 125.856C473.94 125.387 473.572 125.024 473.124 124.768C472.676 124.501 472.18 124.368 471.636 124.368C471.092 124.368 470.596 124.501 470.148 124.768C469.7 125.024 469.332 125.387 469.044 125.856C468.767 126.315 468.607 126.843 468.564 127.44Z" fill="#4985FF"/>
<path d="M103.912 54.96V72H101.2V64.488H92.608V72H89.92V54.96H92.608V62.088H101.2V54.96H103.912ZM106.367 68.328C106.367 67.528 106.591 66.832 107.039 66.24C107.487 65.632 108.111 65.168 108.911 64.848C109.727 64.512 110.663 64.344 111.719 64.344C112.279 64.344 112.847 64.392 113.423 64.488C114.015 64.568 114.535 64.688 114.983 64.848V64.056C114.983 63.176 114.719 62.488 114.191 61.992C113.663 61.496 112.903 61.248 111.911 61.248C111.223 61.248 110.559 61.368 109.919 61.608C109.279 61.848 108.615 62.2 107.927 62.664L107.039 60.888C107.871 60.344 108.703 59.936 109.535 59.664C110.383 59.376 111.271 59.232 112.199 59.232C113.879 59.232 115.199 59.68 116.159 60.576C117.135 61.456 117.623 62.712 117.623 64.344V69.024C117.623 69.328 117.671 69.544 117.767 69.672C117.879 69.8 118.063 69.872 118.319 69.888V72C118.079 72.048 117.863 72.08 117.671 72.096C117.479 72.112 117.319 72.12 117.191 72.12C116.615 72.12 116.183 71.984 115.895 71.712C115.623 71.424 115.463 71.104 115.415 70.752L115.343 70.032C114.799 70.736 114.103 71.28 113.255 71.664C112.407 72.048 111.551 72.24 110.687 72.24C109.855 72.24 109.111 72.072 108.455 71.736C107.799 71.384 107.287 70.912 106.919 70.32C106.551 69.728 106.367 69.064 106.367 68.328ZM114.359 69.096C114.775 68.68 114.983 68.288 114.983 67.92V66.48C114.039 66.128 113.079 65.952 112.103 65.952C111.143 65.952 110.359 66.152 109.751 66.552C109.159 66.936 108.863 67.456 108.863 68.112C108.863 68.656 109.079 69.16 109.511 69.624C109.959 70.072 110.599 70.296 111.431 70.296C111.991 70.296 112.535 70.184 113.063 69.96C113.591 69.736 114.023 69.448 114.359 69.096ZM125.026 72.192C123.746 72.192 122.666 71.96 121.786 71.496C120.922 71.016 120.258 70.36 119.794 69.528L121.93 68.568C122.202 69.032 122.586 69.4 123.082 69.672C123.578 69.928 124.178 70.056 124.882 70.056C125.73 70.056 126.386 69.88 126.85 69.528C127.314 69.176 127.546 68.712 127.546 68.136C127.546 67.608 127.354 67.184 126.97 66.864C126.586 66.528 126.042 66.352 125.338 66.336H124.042V64.656H125.386C125.866 64.656 126.25 64.504 126.538 64.2C126.842 63.88 126.994 63.48 126.994 63C126.994 62.52 126.81 62.136 126.442 61.848C126.09 61.544 125.554 61.392 124.834 61.392C124.21 61.392 123.69 61.512 123.274 61.752C122.874 61.976 122.554 62.312 122.314 62.76L120.322 61.704C120.738 60.936 121.338 60.336 122.122 59.904C122.922 59.472 123.866 59.256 124.954 59.256C126.218 59.256 127.266 59.552 128.098 60.144C128.93 60.736 129.346 61.576 129.346 62.664C129.346 63.24 129.21 63.784 128.938 64.296C128.666 64.792 128.242 65.16 127.666 65.4C128.434 65.64 129.01 66.032 129.394 66.576C129.794 67.12 129.994 67.768 129.994 68.52C129.994 69.288 129.778 69.952 129.346 70.512C128.93 71.056 128.346 71.472 127.594 71.76C126.842 72.048 125.986 72.192 125.026 72.192ZM132.428 72V59.448H139.148C139.948 59.448 140.604 59.6 141.116 59.904C141.644 60.192 142.036 60.568 142.292 61.032C142.548 61.496 142.676 61.992 142.676 62.52C142.676 63.208 142.508 63.816 142.172 64.344C141.852 64.872 141.388 65.272 140.78 65.544C141.5 65.752 142.084 66.12 142.532 66.648C142.996 67.176 143.228 67.84 143.228 68.64C143.228 69.744 142.836 70.584 142.052 71.16C141.268 71.72 140.228 72 138.932 72H132.428ZM134.924 64.824H138.476C138.972 64.824 139.38 64.64 139.7 64.272C140.02 63.904 140.18 63.472 140.18 62.976C140.18 62.512 140.028 62.112 139.724 61.776C139.42 61.44 139.02 61.272 138.524 61.272H134.924V64.824ZM134.924 70.176H138.86C139.372 70.176 139.804 70 140.156 69.648C140.508 69.28 140.684 68.848 140.684 68.352C140.684 67.84 140.516 67.408 140.18 67.056C139.844 66.704 139.42 66.528 138.908 66.528H134.924V70.176ZM144.828 68.328C144.828 67.528 145.052 66.832 145.5 66.24C145.948 65.632 146.572 65.168 147.372 64.848C148.188 64.512 149.124 64.344 150.18 64.344C150.74 64.344 151.308 64.392 151.884 64.488C152.476 64.568 152.996 64.688 153.444 64.848V64.056C153.444 63.176 153.18 62.488 152.652 61.992C152.124 61.496 151.364 61.248 150.372 61.248C149.684 61.248 149.02 61.368 148.38 61.608C147.74 61.848 147.076 62.2 146.388 62.664L145.5 60.888C146.332 60.344 147.164 59.936 147.996 59.664C148.844 59.376 149.732 59.232 150.66 59.232C152.34 59.232 153.66 59.68 154.62 60.576C155.596 61.456 156.084 62.712 156.084 64.344V69.024C156.084 69.328 156.132 69.544 156.228 69.672C156.34 69.8 156.524 69.872 156.78 69.888V72C156.54 72.048 156.324 72.08 156.132 72.096C155.94 72.112 155.78 72.12 155.652 72.12C155.076 72.12 154.644 71.984 154.356 71.712C154.084 71.424 153.924 71.104 153.876 70.752L153.804 70.032C153.26 70.736 152.564 71.28 151.716 71.664C150.868 72.048 150.012 72.24 149.148 72.24C148.316 72.24 147.572 72.072 146.916 71.736C146.26 71.384 145.748 70.912 145.38 70.32C145.012 69.728 144.828 69.064 144.828 68.328ZM152.82 69.096C153.236 68.68 153.444 68.288 153.444 67.92V66.48C152.5 66.128 151.54 65.952 150.564 65.952C149.604 65.952 148.82 66.152 148.212 66.552C147.62 66.936 147.324 67.456 147.324 68.112C147.324 68.656 147.54 69.16 147.972 69.624C148.42 70.072 149.06 70.296 149.892 70.296C150.452 70.296 150.996 70.184 151.524 69.96C152.052 69.736 152.484 69.448 152.82 69.096ZM159.287 72V59.448H161.927V64.44H167.759V59.448H170.399V72H167.759V66.72H161.927V72H159.287ZM173.584 72V59.472H176.224V68.472L182.584 59.448H184.984V72H182.344V63.192L176.056 72H173.584ZM193.827 72.24C192.531 72.24 191.395 71.944 190.419 71.352C189.443 70.76 188.683 69.976 188.139 69C187.595 68.008 187.323 66.928 187.323 65.76C187.323 64.576 187.595 63.488 188.139 62.496C188.683 61.504 189.443 60.712 190.419 60.12C191.395 59.528 192.539 59.232 193.851 59.232C195.163 59.232 196.299 59.536 197.259 60.144C198.219 60.736 198.955 61.52 199.467 62.496C199.995 63.472 200.259 64.52 200.259 65.64C200.259 66.04 200.235 66.36 200.187 66.6H190.131C190.179 67.336 190.379 67.984 190.731 68.544C191.099 69.088 191.555 69.52 192.099 69.84C192.659 70.144 193.267 70.296 193.923 70.296C194.627 70.296 195.291 70.12 195.915 69.768C196.539 69.416 196.971 68.952 197.211 68.376L199.467 69.024C199.035 69.968 198.315 70.744 197.307 71.352C196.315 71.944 195.155 72.24 193.827 72.24ZM190.059 64.848H197.643C197.579 64.128 197.371 63.496 197.019 62.952C196.667 62.392 196.211 61.96 195.651 61.656C195.107 61.336 194.499 61.176 193.827 61.176C193.171 61.176 192.563 61.336 192.003 61.656C191.459 61.96 191.011 62.392 190.659 62.952C190.307 63.496 190.107 64.128 190.059 64.848ZM214.03 72.24C212.734 72.24 211.598 71.944 210.622 71.352C209.646 70.744 208.886 69.944 208.342 68.952C207.798 67.96 207.526 66.88 207.526 65.712C207.526 64.544 207.79 63.472 208.318 62.496C208.862 61.504 209.614 60.712 210.574 60.12C211.55 59.528 212.702 59.232 214.03 59.232C215.326 59.232 216.438 59.52 217.366 60.096C218.31 60.656 219.014 61.408 219.478 62.352L216.91 63.168C216.622 62.64 216.214 62.232 215.686 61.944C215.174 61.64 214.606 61.488 213.982 61.488C213.278 61.488 212.638 61.672 212.062 62.04C211.502 62.392 211.054 62.888 210.718 63.528C210.398 64.168 210.238 64.896 210.238 65.712C210.238 66.528 210.406 67.256 210.742 67.896C211.094 68.536 211.55 69.048 212.11 69.432C212.686 69.8 213.318 69.984 214.006 69.984C214.646 69.984 215.254 69.816 215.83 69.48C216.406 69.144 216.79 68.736 216.982 68.256L219.574 69.024C219.158 69.968 218.462 70.744 217.486 71.352C216.51 71.944 215.358 72.24 214.03 72.24ZM224.724 72V61.776H220.572V59.448H231.54V61.776H227.364V72H224.724ZM232.578 68.328C232.578 67.528 232.802 66.832 233.25 66.24C233.698 65.632 234.322 65.168 235.122 64.848C235.938 64.512 236.874 64.344 237.93 64.344C238.49 64.344 239.058 64.392 239.634 64.488C240.226 64.568 240.746 64.688 241.194 64.848V64.056C241.194 63.176 240.93 62.488 240.402 61.992C239.874 61.496 239.114 61.248 238.122 61.248C237.434 61.248 236.77 61.368 236.13 61.608C235.49 61.848 234.826 62.2 234.138 62.664L233.25 60.888C234.082 60.344 234.914 59.936 235.746 59.664C236.594 59.376 237.482 59.232 238.41 59.232C240.09 59.232 241.41 59.68 242.37 60.576C243.346 61.456 243.834 62.712 243.834 64.344V69.024C243.834 69.328 243.882 69.544 243.978 69.672C244.09 69.8 244.274 69.872 244.53 69.888V72C244.29 72.048 244.074 72.08 243.882 72.096C243.69 72.112 243.53 72.12 243.402 72.12C242.826 72.12 242.394 71.984 242.106 71.712C241.834 71.424 241.674 71.104 241.626 70.752L241.554 70.032C241.01 70.736 240.314 71.28 239.466 71.664C238.618 72.048 237.762 72.24 236.898 72.24C236.066 72.24 235.322 72.072 234.666 71.736C234.01 71.384 233.498 70.912 233.13 70.32C232.762 69.728 232.578 69.064 232.578 68.328ZM240.57 69.096C240.986 68.68 241.194 68.288 241.194 67.92V66.48C240.25 66.128 239.29 65.952 238.314 65.952C237.354 65.952 236.57 66.152 235.962 66.552C235.37 66.936 235.074 67.456 235.074 68.112C235.074 68.656 235.29 69.16 235.722 69.624C236.17 70.072 236.81 70.296 237.642 70.296C238.202 70.296 238.746 70.184 239.274 69.96C239.802 69.736 240.234 69.448 240.57 69.096ZM246.149 72L250.661 65.52L246.509 59.448H249.461L252.869 64.44H254.045V59.448H256.757V64.44H257.981L261.341 59.448H264.293L260.141 65.52L264.677 72H261.677L257.981 66.744H256.757V72H254.045V66.744H252.869L249.149 72H246.149ZM266.959 72V59.472H269.599V68.472L275.959 59.448H278.359V72H275.719V63.192L269.431 72H266.959ZM288.642 72.24C287.634 72.24 286.746 72 285.978 71.52C285.21 71.04 284.602 70.416 284.154 69.648V77.112H281.514V59.448H283.842V61.704C284.322 60.952 284.946 60.352 285.714 59.904C286.482 59.456 287.338 59.232 288.282 59.232C289.434 59.232 290.45 59.536 291.33 60.144C292.226 60.736 292.93 61.528 293.442 62.52C293.954 63.496 294.21 64.56 294.21 65.712C294.21 66.928 293.97 68.032 293.49 69.024C293.01 70 292.354 70.784 291.522 71.376C290.69 71.952 289.73 72.24 288.642 72.24ZM287.778 69.984C288.53 69.984 289.178 69.784 289.722 69.384C290.282 68.968 290.714 68.44 291.018 67.8C291.338 67.144 291.498 66.448 291.498 65.712C291.498 64.944 291.322 64.24 290.97 63.6C290.634 62.96 290.17 62.448 289.578 62.064C289.002 61.68 288.338 61.488 287.586 61.488C287.138 61.488 286.666 61.6 286.17 61.824C285.69 62.048 285.266 62.344 284.898 62.712C284.53 63.08 284.282 63.496 284.154 63.96V67.248C284.474 68.016 284.962 68.664 285.618 69.192C286.29 69.72 287.01 69.984 287.778 69.984ZM302.224 72.24C300.912 72.24 299.768 71.944 298.792 71.352C297.832 70.744 297.088 69.952 296.56 68.976C296.032 67.984 295.768 66.904 295.768 65.736C295.768 64.568 296.032 63.496 296.56 62.52C297.104 61.528 297.856 60.736 298.816 60.144C299.792 59.536 300.928 59.232 302.224 59.232C303.52 59.232 304.648 59.536 305.608 60.144C306.584 60.736 307.336 61.528 307.864 62.52C308.408 63.496 308.68 64.568 308.68 65.736C308.68 66.904 308.416 67.984 307.888 68.976C307.36 69.952 306.608 70.744 305.632 71.352C304.672 71.944 303.536 72.24 302.224 72.24ZM298.48 65.76C298.48 66.56 298.648 67.28 298.984 67.92C299.32 68.56 299.768 69.064 300.328 69.432C300.888 69.8 301.52 69.984 302.224 69.984C302.912 69.984 303.536 69.8 304.096 69.432C304.672 69.048 305.128 68.536 305.464 67.896C305.8 67.256 305.968 66.536 305.968 65.736C305.968 64.936 305.8 64.216 305.464 63.576C305.128 62.936 304.672 62.432 304.096 62.064C303.536 61.68 302.912 61.488 302.224 61.488C301.536 61.488 300.904 61.68 300.328 62.064C299.768 62.432 299.32 62.944 298.984 63.6C298.648 64.24 298.48 64.96 298.48 65.76ZM311.021 72V59.448H317.742C318.542 59.448 319.198 59.6 319.71 59.904C320.238 60.192 320.63 60.568 320.886 61.032C321.142 61.496 321.27 61.992 321.27 62.52C321.27 63.208 321.102 63.816 320.766 64.344C320.446 64.872 319.982 65.272 319.374 65.544C320.094 65.752 320.678 66.12 321.126 66.648C321.59 67.176 321.822 67.84 321.822 68.64C321.822 69.744 321.43 70.584 320.646 71.16C319.862 71.72 318.822 72 317.526 72H311.021ZM313.518 64.824H317.07C317.566 64.824 317.974 64.64 318.294 64.272C318.614 63.904 318.774 63.472 318.774 62.976C318.774 62.512 318.622 62.112 318.318 61.776C318.014 61.44 317.614 61.272 317.118 61.272H313.518V64.824ZM313.518 70.176H317.454C317.966 70.176 318.398 70 318.75 69.648C319.102 69.28 319.278 68.848 319.278 68.352C319.278 67.84 319.11 67.408 318.774 67.056C318.438 66.704 318.014 66.528 317.502 66.528H313.518V70.176ZM324.334 72V59.448H326.95V64.416H328.198L331.894 59.448H334.822L330.238 65.52L335.35 72H332.302L328.174 66.792H326.95V72H324.334ZM337.365 72V59.472H340.005V68.472L346.365 59.448H348.765V72H346.125V63.192L339.837 72H337.365ZM91.648 96.096V93.84H92.872C93.272 93.84 93.576 93.752 93.784 93.576C93.992 93.384 94.192 93.088 94.384 92.688L94.888 91.584L87.952 78.96H90.928L96.112 88.824L100.504 78.96H103.36L96.448 93.96C96.064 94.744 95.64 95.296 95.176 95.616C94.728 95.936 94.112 96.096 93.328 96.096H91.648ZM111.829 96.24C110.821 96.24 109.933 96 109.165 95.52C108.397 95.04 107.789 94.416 107.341 93.648V101.112H104.701V83.448H107.029V85.704C107.509 84.952 108.133 84.352 108.901 83.904C109.669 83.456 110.525 83.232 111.469 83.232C112.621 83.232 113.637 83.536 114.517 84.144C115.413 84.736 116.117 85.528 116.629 86.52C117.141 87.496 117.397 88.56 117.397 89.712C117.397 90.928 117.157 92.032 116.677 93.024C116.197 94 115.541 94.784 114.709 95.376C113.877 95.952 112.917 96.24 111.829 96.24ZM110.965 93.984C111.717 93.984 112.365 93.784 112.909 93.384C113.469 92.968 113.901 92.44 114.205 91.8C114.525 91.144 114.685 90.448 114.685 89.712C114.685 88.944 114.509 88.24 114.157 87.6C113.821 86.96 113.357 86.448 112.765 86.064C112.189 85.68 111.525 85.488 110.773 85.488C110.325 85.488 109.853 85.6 109.357 85.824C108.877 86.048 108.453 86.344 108.085 86.712C107.717 87.08 107.469 87.496 107.341 87.96V91.248C107.661 92.016 108.149 92.664 108.805 93.192C109.477 93.72 110.197 93.984 110.965 93.984ZM125.412 96.24C124.1 96.24 122.956 95.944 121.98 95.352C121.02 94.744 120.276 93.952 119.748 92.976C119.22 91.984 118.956 90.904 118.956 89.736C118.956 88.568 119.22 87.496 119.748 86.52C120.292 85.528 121.044 84.736 122.004 84.144C122.98 83.536 124.116 83.232 125.412 83.232C126.708 83.232 127.836 83.536 128.796 84.144C129.772 84.736 130.524 85.528 131.052 86.52C131.596 87.496 131.868 88.568 131.868 89.736C131.868 90.904 131.604 91.984 131.076 92.976C130.548 93.952 129.796 94.744 128.82 95.352C127.86 95.944 126.724 96.24 125.412 96.24ZM121.668 89.76C121.668 90.56 121.836 91.28 122.172 91.92C122.508 92.56 122.956 93.064 123.516 93.432C124.076 93.8 124.708 93.984 125.412 93.984C126.1 93.984 126.724 93.8 127.284 93.432C127.86 93.048 128.316 92.536 128.652 91.896C128.988 91.256 129.156 90.536 129.156 89.736C129.156 88.936 128.988 88.216 128.652 87.576C128.316 86.936 127.86 86.432 127.284 86.064C126.724 85.68 126.1 85.488 125.412 85.488C124.724 85.488 124.092 85.68 123.516 86.064C122.956 86.432 122.508 86.944 122.172 87.6C121.836 88.24 121.668 88.96 121.668 89.76ZM134.209 96V83.448H140.929C141.729 83.448 142.385 83.6 142.897 83.904C143.425 84.192 143.817 84.568 144.073 85.032C144.329 85.496 144.457 85.992 144.457 86.52C144.457 87.208 144.289 87.816 143.953 88.344C143.633 88.872 143.169 89.272 142.561 89.544C143.281 89.752 143.865 90.12 144.313 90.648C144.777 91.176 145.009 91.84 145.009 92.64C145.009 93.744 144.617 94.584 143.833 95.16C143.049 95.72 142.009 96 140.713 96H134.209ZM136.705 88.824H140.257C140.753 88.824 141.161 88.64 141.481 88.272C141.801 87.904 141.961 87.472 141.961 86.976C141.961 86.512 141.809 86.112 141.505 85.776C141.201 85.44 140.801 85.272 140.305 85.272H136.705V88.824ZM136.705 94.176H140.641C141.153 94.176 141.585 94 141.937 93.648C142.289 93.28 142.465 92.848 142.465 92.352C142.465 91.84 142.297 91.408 141.961 91.056C141.625 90.704 141.201 90.528 140.689 90.528H136.705V94.176ZM153.21 96.24C151.914 96.24 150.778 95.944 149.802 95.352C148.826 94.76 148.066 93.976 147.521 93C146.978 92.008 146.706 90.928 146.706 89.76C146.706 88.576 146.978 87.488 147.521 86.496C148.066 85.504 148.826 84.712 149.802 84.12C150.778 83.528 151.922 83.232 153.234 83.232C154.546 83.232 155.682 83.536 156.642 84.144C157.602 84.736 158.338 85.52 158.85 86.496C159.378 87.472 159.642 88.52 159.642 89.64C159.642 90.04 159.618 90.36 159.57 90.6H149.514C149.562 91.336 149.762 91.984 150.114 92.544C150.482 93.088 150.938 93.52 151.482 93.84C152.042 94.144 152.65 94.296 153.306 94.296C154.01 94.296 154.674 94.12 155.298 93.768C155.922 93.416 156.354 92.952 156.594 92.376L158.85 93.024C158.418 93.968 157.698 94.744 156.69 95.352C155.698 95.944 154.538 96.24 153.21 96.24ZM149.442 88.848H157.026C156.962 88.128 156.754 87.496 156.402 86.952C156.05 86.392 155.594 85.96 155.034 85.656C154.49 85.336 153.882 85.176 153.21 85.176C152.554 85.176 151.946 85.336 151.386 85.656C150.842 85.96 150.394 86.392 150.042 86.952C149.69 87.496 149.49 88.128 149.442 88.848ZM161.795 96V83.448H164.435V88.44H170.267V83.448H172.907V96H170.267V90.72H164.435V96H161.795ZM176.092 96V83.448H178.732V87.576H181.732C183.22 87.576 184.348 87.952 185.116 88.704C185.9 89.456 186.292 90.448 186.292 91.68C186.292 92.928 185.916 93.96 185.164 94.776C184.428 95.592 183.34 96 181.9 96H176.092ZM178.732 93.96H181.492C182.276 93.96 182.844 93.744 183.196 93.312C183.548 92.864 183.724 92.336 183.724 91.728C183.724 91.136 183.556 90.624 183.22 90.192C182.884 89.76 182.3 89.544 181.468 89.544H178.732V93.96ZM200.061 96.24C198.765 96.24 197.629 95.944 196.653 95.352C195.677 94.744 194.917 93.944 194.373 92.952C193.829 91.96 193.557 90.88 193.557 89.712C193.557 88.544 193.821 87.472 194.349 86.496C194.893 85.504 195.645 84.712 196.605 84.12C197.581 83.528 198.733 83.232 200.061 83.232C201.357 83.232 202.469 83.52 203.397 84.096C204.341 84.656 205.045 85.408 205.509 86.352L202.941 87.168C202.653 86.64 202.245 86.232 201.717 85.944C201.205 85.64 200.637 85.488 200.013 85.488C199.309 85.488 198.669 85.672 198.093 86.04C197.533 86.392 197.085 86.888 196.749 87.528C196.429 88.168 196.269 88.896 196.269 89.712C196.269 90.528 196.437 91.256 196.773 91.896C197.125 92.536 197.581 93.048 198.141 93.432C198.717 93.8 199.349 93.984 200.037 93.984C200.677 93.984 201.285 93.816 201.861 93.48C202.437 93.144 202.821 92.736 203.013 92.256L205.605 93.024C205.189 93.968 204.493 94.744 203.517 95.352C202.541 95.944 201.389 96.24 200.061 96.24ZM213.302 96.24C211.99 96.24 210.846 95.944 209.87 95.352C208.91 94.744 208.166 93.952 207.638 92.976C207.11 91.984 206.846 90.904 206.846 89.736C206.846 88.568 207.11 87.496 207.638 86.52C208.182 85.528 208.934 84.736 209.894 84.144C210.87 83.536 212.006 83.232 213.302 83.232C214.598 83.232 215.726 83.536 216.686 84.144C217.662 84.736 218.414 85.528 218.942 86.52C219.486 87.496 219.758 88.568 219.758 89.736C219.758 90.904 219.494 91.984 218.966 92.976C218.438 93.952 217.686 94.744 216.71 95.352C215.75 95.944 214.614 96.24 213.302 96.24ZM209.558 89.76C209.558 90.56 209.726 91.28 210.062 91.92C210.398 92.56 210.846 93.064 211.406 93.432C211.966 93.8 212.598 93.984 213.302 93.984C213.99 93.984 214.614 93.8 215.174 93.432C215.75 93.048 216.206 92.536 216.542 91.896C216.878 91.256 217.046 90.536 217.046 89.736C217.046 88.936 216.878 88.216 216.542 87.576C216.206 86.936 215.75 86.432 215.174 86.064C214.614 85.68 213.99 85.488 213.302 85.488C212.614 85.488 211.982 85.68 211.406 86.064C210.846 86.432 210.398 86.944 210.062 87.6C209.726 88.24 209.558 88.96 209.558 89.76ZM225.076 96V85.776H220.924V83.448H231.892V85.776H227.716V96H225.076ZM240.993 96.24C239.985 96.24 239.097 96 238.329 95.52C237.561 95.04 236.953 94.416 236.505 93.648V101.112H233.865V83.448H236.193V85.704C236.673 84.952 237.297 84.352 238.065 83.904C238.833 83.456 239.689 83.232 240.633 83.232C241.785 83.232 242.801 83.536 243.681 84.144C244.577 84.736 245.281 85.528 245.793 86.52C246.305 87.496 246.561 88.56 246.561 89.712C246.561 90.928 246.321 92.032 245.841 93.024C245.361 94 244.705 94.784 243.873 95.376C243.041 95.952 242.081 96.24 240.993 96.24ZM240.129 93.984C240.881 93.984 241.529 93.784 242.073 93.384C242.633 92.968 243.065 92.44 243.369 91.8C243.689 91.144 243.849 90.448 243.849 89.712C243.849 88.944 243.673 88.24 243.321 87.6C242.985 86.96 242.521 86.448 241.929 86.064C241.353 85.68 240.689 85.488 239.937 85.488C239.489 85.488 239.017 85.6 238.521 85.824C238.041 86.048 237.617 86.344 237.249 86.712C236.881 87.08 236.633 87.496 236.505 87.96V91.248C236.825 92.016 237.313 92.664 237.969 93.192C238.641 93.72 239.361 93.984 240.129 93.984ZM250.218 101.328C249.914 101.328 249.602 101.288 249.282 101.208C248.978 101.128 248.65 101.008 248.298 100.848L248.97 98.88C249.338 99.072 249.682 99.168 250.002 99.168C250.818 99.168 251.474 98.512 251.97 97.2L252.45 95.904L247.146 83.448H249.906L253.746 93.312L257.154 83.448H259.698L254.178 97.92C253.762 99.04 253.202 99.888 252.498 100.464C251.81 101.04 251.05 101.328 250.218 101.328ZM260.439 99V93.672H260.727C261.175 93.672 261.575 93.496 261.927 93.144C262.295 92.792 262.591 92.152 262.815 91.224C263.055 90.296 263.199 88.968 263.247 87.24L263.391 83.448H272.343V93.672H274.071V99H271.743V96H262.743V99H260.439ZM264.207 93.672H269.703V85.728H265.719L265.647 87.48C265.567 89.32 265.407 90.72 265.167 91.68C264.943 92.64 264.623 93.304 264.207 93.672ZM276.311 96V83.448H278.951V88.44H284.783V83.448H287.423V96H284.783V90.72H278.951V96H276.311ZM290.607 96V83.472H293.247V92.472L299.607 83.448H302.007V96H299.367V87.192L293.079 96H290.607ZM305.162 96V83.448H307.778V88.416H309.026L312.722 83.448H315.65L311.066 89.52L316.178 96H313.13L309.002 90.792H307.778V96H305.162ZM317.235 92.328C317.235 91.528 317.459 90.832 317.907 90.24C318.355 89.632 318.979 89.168 319.779 88.848C320.595 88.512 321.531 88.344 322.587 88.344C323.147 88.344 323.715 88.392 324.291 88.488C324.883 88.568 325.403 88.688 325.851 88.848V88.056C325.851 87.176 325.587 86.488 325.059 85.992C324.531 85.496 323.771 85.248 322.779 85.248C322.091 85.248 321.427 85.368 320.787 85.608C320.147 85.848 319.483 86.2 318.795 86.664L317.907 84.888C318.739 84.344 319.571 83.936 320.403 83.664C321.251 83.376 322.139 83.232 323.067 83.232C324.747 83.232 326.067 83.68 327.027 84.576C328.003 85.456 328.491 86.712 328.491 88.344V93.024C328.491 93.328 328.539 93.544 328.635 93.672C328.747 93.8 328.931 93.872 329.187 93.888V96C328.947 96.048 328.731 96.08 328.539 96.096C328.347 96.112 328.187 96.12 328.059 96.12C327.483 96.12 327.051 95.984 326.763 95.712C326.491 95.424 326.331 95.104 326.283 94.752L326.211 94.032C325.667 94.736 324.971 95.28 324.123 95.664C323.275 96.048 322.419 96.24 321.555 96.24C320.723 96.24 319.979 96.072 319.323 95.736C318.667 95.384 318.155 94.912 317.787 94.32C317.419 93.728 317.235 93.064 317.235 92.328ZM325.227 93.096C325.643 92.68 325.851 92.288 325.851 91.92V90.48C324.907 90.128 323.947 89.952 322.971 89.952C322.011 89.952 321.227 90.152 320.619 90.552C320.027 90.936 319.73 91.456 319.73 92.112C319.73 92.656 319.947 93.16 320.379 93.624C320.827 94.072 321.467 94.296 322.299 94.296C322.859 94.296 323.403 94.184 323.931 93.96C324.459 93.736 324.891 93.448 325.227 93.096Z" fill="#4985FF"/>
<path d="M100.924 138V127.596L96.298 135.678H95.506L90.862 127.596V138H89.602V125.22H90.898L95.884 133.968L100.906 125.22H102.184V138H100.924ZM105.135 126.66V124.86H106.359V126.66H105.135ZM105.135 138V128.622H106.359V138H105.135ZM116.939 138H115.715V132.762C115.715 131.658 115.547 130.854 115.211 130.35C114.887 129.834 114.383 129.576 113.699 129.576C113.219 129.576 112.745 129.696 112.277 129.936C111.809 130.164 111.395 130.482 111.035 130.89C110.687 131.286 110.435 131.742 110.279 132.258V138H109.055V128.622H110.171V130.746C110.543 130.062 111.089 129.51 111.809 129.09C112.529 128.67 113.309 128.46 114.149 128.46C114.845 128.46 115.397 128.628 115.805 128.964C116.213 129.288 116.501 129.756 116.669 130.368C116.849 130.968 116.939 131.682 116.939 132.51V138ZM122.627 138.18C121.859 138.18 121.145 138.054 120.485 137.802C119.837 137.538 119.267 137.154 118.775 136.65L119.279 135.786C119.807 136.278 120.335 136.638 120.863 136.866C121.403 137.082 121.973 137.19 122.573 137.19C123.293 137.19 123.881 137.046 124.337 136.758C124.805 136.458 125.039 136.032 125.039 135.48C125.039 135.108 124.925 134.826 124.697 134.634C124.481 134.43 124.163 134.268 123.743 134.148C123.335 134.028 122.843 133.89 122.267 133.734C121.619 133.554 121.073 133.368 120.629 133.176C120.197 132.972 119.867 132.72 119.639 132.42C119.423 132.108 119.315 131.706 119.315 131.214C119.315 130.614 119.465 130.11 119.765 129.702C120.077 129.294 120.497 128.988 121.025 128.784C121.565 128.568 122.165 128.46 122.825 128.46C123.545 128.46 124.181 128.574 124.733 128.802C125.285 129.03 125.735 129.348 126.083 129.756L125.489 130.584C125.165 130.2 124.763 129.918 124.283 129.738C123.815 129.546 123.305 129.45 122.753 129.45C122.369 129.45 122.003 129.504 121.655 129.612C121.307 129.708 121.019 129.876 120.791 130.116C120.575 130.344 120.467 130.662 120.467 131.07C120.467 131.574 120.653 131.922 121.025 132.114C121.397 132.306 121.961 132.51 122.717 132.726C123.425 132.918 124.043 133.11 124.571 133.302C125.099 133.494 125.507 133.752 125.795 134.076C126.083 134.388 126.227 134.826 126.227 135.39C126.227 136.266 125.897 136.95 125.237 137.442C124.577 137.934 123.707 138.18 122.627 138.18ZM134.946 138L131.472 133.194L129.474 135.066V138H128.25V124.86H129.474V133.752L134.784 128.64H136.134L132.3 132.474L136.278 138H134.946ZM137.993 139.458L138.299 137.946H137.885V136.236H139.073V137.946L138.623 139.458H137.993ZM156.29 134.706C156.29 135.342 156.128 135.912 155.804 136.416C155.48 136.908 155.042 137.298 154.49 137.586C153.95 137.862 153.356 138 152.708 138H146.678V125.22H152.834C153.434 125.22 153.95 125.382 154.382 125.706C154.814 126.018 155.15 126.426 155.39 126.93C155.63 127.422 155.75 127.938 155.75 128.478C155.75 129.114 155.588 129.702 155.264 130.242C154.94 130.782 154.49 131.184 153.914 131.448C154.634 131.664 155.21 132.066 155.642 132.654C156.074 133.242 156.29 133.926 156.29 134.706ZM147.938 126.318V131.034H152.33C152.75 131.034 153.122 130.926 153.446 130.71C153.782 130.482 154.04 130.194 154.22 129.846C154.412 129.486 154.508 129.096 154.508 128.676C154.508 128.244 154.418 127.848 154.238 127.488C154.058 127.128 153.812 126.846 153.5 126.642C153.188 126.426 152.834 126.318 152.438 126.318H147.938ZM155.03 134.49C155.03 134.07 154.934 133.674 154.742 133.302C154.55 132.93 154.286 132.63 153.95 132.402C153.626 132.174 153.254 132.06 152.834 132.06H147.938V136.902H152.708C153.14 136.902 153.53 136.788 153.878 136.56C154.226 136.332 154.502 136.038 154.706 135.678C154.922 135.306 155.03 134.91 155.03 134.49ZM158.194 125.22L162.37 132.096L166.582 125.22H167.95L163 133.248V138H161.74V133.212L156.808 125.22H158.194Z" fill="#4985FF"/>
<path d="M460.102 40H457.324V22.8672H466.992V25.2344H460.102V30.5898H466.559V32.9688H460.102V40ZM472.898 30.8359H474.844C476.148 30.8359 477.094 30.5938 477.68 30.1094C478.266 29.625 478.559 28.9062 478.559 27.9531C478.559 26.9844 478.242 26.2891 477.609 25.8672C476.977 25.4453 476.023 25.2344 474.75 25.2344H472.898V30.8359ZM472.898 33.1562V40H470.098V22.8672H474.938C477.148 22.8672 478.785 23.2812 479.848 24.1094C480.91 24.9375 481.441 26.1875 481.441 27.8594C481.441 29.9922 480.332 31.5117 478.113 32.418L482.953 40H479.766L475.664 33.1562H472.898ZM495.141 40H485.449V22.8672H495.141V25.2344H488.25V29.8984H494.707V32.2422H488.25V37.6211H495.141V40ZM508.547 40H498.855V22.8672H508.547V25.2344H501.656V29.8984H508.113V32.2422H501.656V37.6211H508.547V40Z" fill="#8D8E8D"/>
<path d="M94.408 28.31H95.596L97.396 32.846L99.214 28.31H100.42L98.188 33.764L100.636 39.542L105.262 28.22H106.63L101.212 41H100.096L97.414 34.682L94.714 41H93.616L88.216 28.22H89.566L94.21 39.542L96.64 33.764L94.408 28.31ZM106.471 38.3C106.471 37.724 106.639 37.226 106.975 36.806C107.311 36.374 107.773 36.038 108.361 35.798C108.961 35.558 109.651 35.438 110.431 35.438C110.887 35.438 111.361 35.48 111.853 35.564C112.345 35.636 112.783 35.738 113.167 35.87V35.078C113.167 34.286 112.933 33.656 112.465 33.188C111.997 32.72 111.349 32.486 110.521 32.486C110.029 32.486 109.537 32.582 109.045 32.774C108.553 32.954 108.043 33.224 107.515 33.584L107.047 32.72C107.659 32.3 108.259 31.988 108.847 31.784C109.435 31.568 110.035 31.46 110.647 31.46C111.799 31.46 112.711 31.79 113.383 32.45C114.055 33.11 114.391 34.022 114.391 35.186V39.524C114.391 39.848 114.541 40.016 114.841 40.028V41C114.577 41.036 114.391 41.048 114.283 41.036C113.983 41.024 113.755 40.928 113.599 40.748C113.443 40.568 113.359 40.376 113.347 40.172L113.329 39.488C112.909 40.028 112.363 40.448 111.691 40.748C111.019 41.036 110.335 41.18 109.639 41.18C109.027 41.18 108.481 41.054 108.001 40.802C107.521 40.538 107.143 40.19 106.867 39.758C106.603 39.314 106.471 38.828 106.471 38.3ZM112.753 39.02C113.029 38.696 113.167 38.396 113.167 38.12V36.752C112.339 36.428 111.475 36.266 110.575 36.266C109.699 36.266 108.991 36.44 108.451 36.788C107.911 37.136 107.641 37.61 107.641 38.21C107.641 38.726 107.839 39.194 108.235 39.614C108.643 40.034 109.207 40.244 109.927 40.244C110.515 40.244 111.061 40.13 111.565 39.902C112.081 39.674 112.477 39.38 112.753 39.02ZM121.716 32.702C120.9 32.726 120.18 32.954 119.556 33.386C118.944 33.818 118.512 34.412 118.26 35.168V41H117.036V31.622H118.188V33.872C118.512 33.212 118.938 32.678 119.466 32.27C120.006 31.862 120.576 31.634 121.176 31.586C121.296 31.574 121.398 31.568 121.482 31.568C121.566 31.568 121.644 31.574 121.716 31.586V32.702ZM126.862 41.126C126.214 41.126 125.62 40.994 125.08 40.73C124.552 40.466 124.09 40.112 123.694 39.668C123.31 39.212 123.01 38.696 122.794 38.12C122.578 37.544 122.47 36.95 122.47 36.338C122.47 35.462 122.656 34.658 123.028 33.926C123.4 33.182 123.91 32.588 124.558 32.144C125.218 31.688 125.974 31.46 126.826 31.46C127.63 31.46 128.326 31.664 128.914 32.072C129.514 32.48 130.018 32.984 130.426 33.584V31.622H131.524V41.036C131.524 41.912 131.314 42.644 130.894 43.232C130.474 43.82 129.916 44.264 129.22 44.564C128.524 44.864 127.762 45.014 126.934 45.014C125.854 45.014 124.984 44.822 124.324 44.438C123.676 44.054 123.142 43.538 122.722 42.89L123.478 42.296C123.85 42.884 124.342 43.322 124.954 43.61C125.578 43.898 126.238 44.042 126.934 44.042C127.546 44.042 128.104 43.928 128.608 43.7C129.124 43.484 129.532 43.154 129.832 42.71C130.144 42.266 130.3 41.708 130.3 41.036V39.182C129.94 39.77 129.448 40.244 128.824 40.604C128.2 40.952 127.546 41.126 126.862 41.126ZM127.204 40.1C127.696 40.1 128.164 39.986 128.608 39.758C129.052 39.53 129.424 39.242 129.724 38.894C130.036 38.534 130.228 38.162 130.3 37.778V34.88C130.12 34.424 129.862 34.022 129.526 33.674C129.19 33.314 128.806 33.038 128.374 32.846C127.942 32.642 127.504 32.54 127.06 32.54C126.364 32.54 125.764 32.732 125.26 33.116C124.768 33.488 124.384 33.968 124.108 34.556C123.844 35.132 123.712 35.732 123.712 36.356C123.712 37.028 123.868 37.652 124.18 38.228C124.492 38.792 124.912 39.248 125.44 39.596C125.968 39.932 126.556 40.1 127.204 40.1ZM133.471 38.3C133.471 37.724 133.639 37.226 133.975 36.806C134.311 36.374 134.773 36.038 135.361 35.798C135.961 35.558 136.651 35.438 137.431 35.438C137.887 35.438 138.361 35.48 138.853 35.564C139.345 35.636 139.783 35.738 140.167 35.87V35.078C140.167 34.286 139.933 33.656 139.465 33.188C138.997 32.72 138.349 32.486 137.521 32.486C137.029 32.486 136.537 32.582 136.045 32.774C135.553 32.954 135.043 33.224 134.515 33.584L134.047 32.72C134.659 32.3 135.259 31.988 135.847 31.784C136.435 31.568 137.035 31.46 137.647 31.46C138.799 31.46 139.711 31.79 140.383 32.45C141.055 33.11 141.391 34.022 141.391 35.186V39.524C141.391 39.848 141.541 40.016 141.841 40.028V41C141.577 41.036 141.391 41.048 141.283 41.036C140.983 41.024 140.755 40.928 140.599 40.748C140.443 40.568 140.359 40.376 140.347 40.172L140.329 39.488C139.909 40.028 139.363 40.448 138.691 40.748C138.019 41.036 137.335 41.18 136.639 41.18C136.027 41.18 135.481 41.054 135.001 40.802C134.521 40.538 134.143 40.19 133.867 39.758C133.603 39.314 133.471 38.828 133.471 38.3ZM139.753 39.02C140.029 38.696 140.167 38.396 140.167 38.12V36.752C139.339 36.428 138.475 36.266 137.575 36.266C136.699 36.266 135.991 36.44 135.451 36.788C134.911 37.136 134.641 37.61 134.641 38.21C134.641 38.726 134.839 39.194 135.235 39.614C135.643 40.034 136.207 40.244 136.927 40.244C137.515 40.244 138.061 40.13 138.565 39.902C139.081 39.674 139.477 39.38 139.753 39.02ZM157.986 41H156.762V35.762C156.762 34.682 156.588 33.884 156.24 33.368C155.892 32.84 155.376 32.576 154.692 32.576C153.972 32.576 153.336 32.828 152.784 33.332C152.232 33.836 151.842 34.484 151.614 35.276V41H150.39V35.762C150.39 34.658 150.216 33.854 149.868 33.35C149.532 32.834 149.022 32.576 148.338 32.576C147.63 32.576 146.994 32.822 146.43 33.314C145.878 33.806 145.488 34.454 145.26 35.258V41H144.036V31.622H145.152V33.746C145.536 33.026 146.04 32.468 146.664 32.072C147.288 31.664 147.978 31.46 148.734 31.46C149.514 31.46 150.144 31.688 150.624 32.144C151.104 32.588 151.398 33.164 151.506 33.872C152.37 32.264 153.576 31.46 155.124 31.46C156.18 31.46 156.918 31.832 157.338 32.576C157.77 33.308 157.986 34.286 157.986 35.51V41ZM160.577 29.66V27.86H161.801V29.66H160.577ZM160.577 41V31.622H161.801V41H160.577ZM172.38 41H171.156V35.762C171.156 34.658 170.988 33.854 170.652 33.35C170.328 32.834 169.824 32.576 169.14 32.576C168.66 32.576 168.186 32.696 167.718 32.936C167.25 33.164 166.836 33.482 166.476 33.89C166.128 34.286 165.876 34.742 165.72 35.258V41H164.496V31.622H165.612V33.746C165.984 33.062 166.53 32.51 167.25 32.09C167.97 31.67 168.75 31.46 169.59 31.46C170.286 31.46 170.838 31.628 171.246 31.964C171.654 32.288 171.942 32.756 172.11 33.368C172.29 33.968 172.38 34.682 172.38 35.51V41ZM178.753 41.126C178.105 41.126 177.511 40.994 176.971 40.73C176.443 40.466 175.981 40.112 175.585 39.668C175.201 39.212 174.901 38.696 174.685 38.12C174.469 37.544 174.361 36.95 174.361 36.338C174.361 35.462 174.547 34.658 174.919 33.926C175.291 33.182 175.801 32.588 176.449 32.144C177.109 31.688 177.865 31.46 178.717 31.46C179.521 31.46 180.217 31.664 180.805 32.072C181.405 32.48 181.909 32.984 182.317 33.584V31.622H183.415V41.036C183.415 41.912 183.205 42.644 182.785 43.232C182.365 43.82 181.807 44.264 181.111 44.564C180.415 44.864 179.653 45.014 178.825 45.014C177.745 45.014 176.875 44.822 176.215 44.438C175.567 44.054 175.033 43.538 174.613 42.89L175.369 42.296C175.741 42.884 176.233 43.322 176.845 43.61C177.469 43.898 178.129 44.042 178.825 44.042C179.437 44.042 179.995 43.928 180.499 43.7C181.015 43.484 181.423 43.154 181.723 42.71C182.035 42.266 182.191 41.708 182.191 41.036V39.182C181.831 39.77 181.339 40.244 180.715 40.604C180.091 40.952 179.437 41.126 178.753 41.126ZM179.095 40.1C179.587 40.1 180.055 39.986 180.499 39.758C180.943 39.53 181.315 39.242 181.615 38.894C181.927 38.534 182.119 38.162 182.191 37.778V34.88C182.011 34.424 181.753 34.022 181.417 33.674C181.081 33.314 180.697 33.038 180.265 32.846C179.833 32.642 179.395 32.54 178.951 32.54C178.255 32.54 177.655 32.732 177.151 33.116C176.659 33.488 176.275 33.968 175.999 34.556C175.735 35.132 175.603 35.732 175.603 36.356C175.603 37.028 175.759 37.652 176.071 38.228C176.383 38.792 176.803 39.248 177.331 39.596C177.859 39.932 178.447 40.1 179.095 40.1Z" fill="#4985FF"/>
<rect x="20" y="20" width="48" height="48" fill="#C4C4C4"/>
<path d="M37.6622 33.584H40.7222L44.1062 42.476L47.5262 33.584H50.5862L46.1582 44.708L50.5502 55.256L59.1902 33.44H62.7182L52.0262 59H49.2182L44.1422 46.94L39.0302 59H36.2222L25.5662 33.44H29.0582L37.7342 55.256L42.0902 44.708L37.6622 33.584Z" fill="white"/>
<path d="M398.25 62.07C397.55 62.07 396.915 61.93 396.346 61.65C395.777 61.3607 395.287 60.978 394.876 60.502C394.465 60.026 394.148 59.4893 393.924 58.892C393.7 58.2853 393.588 57.6647 393.588 57.03C393.588 56.3673 393.705 55.7373 393.938 55.14C394.171 54.5333 394.498 53.9967 394.918 53.53C395.347 53.054 395.847 52.6807 396.416 52.41C396.985 52.13 397.601 51.99 398.264 51.99C398.955 51.99 399.585 52.1347 400.154 52.424C400.723 52.7133 401.213 53.1007 401.624 53.586C402.044 54.0713 402.361 54.6127 402.576 55.21C402.8 55.8073 402.912 56.4187 402.912 57.044C402.912 57.7067 402.795 58.3413 402.562 58.948C402.329 59.5453 402.002 60.082 401.582 60.558C401.162 61.0247 400.667 61.3933 400.098 61.664C399.529 61.9347 398.913 62.07 398.25 62.07ZM394.568 57.03C394.568 57.5713 394.657 58.0893 394.834 58.584C395.011 59.0787 395.263 59.522 395.59 59.914C395.917 60.306 396.304 60.6187 396.752 60.852C397.209 61.076 397.709 61.188 398.25 61.188C398.819 61.188 399.328 61.0713 399.776 60.838C400.233 60.5953 400.621 60.2733 400.938 59.872C401.265 59.4707 401.512 59.0273 401.68 58.542C401.848 58.0473 401.932 57.5433 401.932 57.03C401.932 56.4887 401.843 55.9707 401.666 55.476C401.489 54.9813 401.232 54.538 400.896 54.146C400.569 53.754 400.182 53.446 399.734 53.222C399.286 52.998 398.791 52.886 398.25 52.886C397.69 52.886 397.181 53.0027 396.724 53.236C396.276 53.4693 395.889 53.7867 395.562 54.188C395.245 54.58 394.997 55.0233 394.82 55.518C394.652 56.0127 394.568 56.5167 394.568 57.03ZM405.74 53.866V62H404.76V52.06H405.572L412.096 60.348V52.074H413.076V62H412.166L405.74 53.866ZM415.574 62V52.06H416.554V61.132H422.294V62H415.574ZM423.736 62V52.06H424.716V62H423.736ZM428.189 53.866V62H427.209V52.06H428.021L434.545 60.348V52.074H435.525V62H434.615L428.189 53.866ZM444.701 61.132V62H438.023V52.06H444.575V52.928H439.003V56.512H443.861V57.338H439.003V61.132H444.701ZM446.513 63.134L446.751 61.958H446.429V60.628H447.353V61.958L447.003 63.134H446.513ZM457.271 62.07C456.571 62.07 455.937 61.93 455.367 61.65C454.798 61.3607 454.308 60.978 453.897 60.502C453.487 60.026 453.169 59.4893 452.945 58.892C452.721 58.2853 452.609 57.6647 452.609 57.03C452.609 56.3673 452.726 55.7373 452.959 55.14C453.193 54.5333 453.519 53.9967 453.939 53.53C454.369 53.054 454.868 52.6807 455.437 52.41C456.007 52.13 456.623 51.99 457.285 51.99C457.976 51.99 458.606 52.1347 459.175 52.424C459.745 52.7133 460.235 53.1007 460.645 53.586C461.065 54.0713 461.383 54.6127 461.597 55.21C461.821 55.8073 461.933 56.4187 461.933 57.044C461.933 57.7067 461.817 58.3413 461.583 58.948C461.35 59.5453 461.023 60.082 460.603 60.558C460.183 61.0247 459.689 61.3933 459.119 61.664C458.55 61.9347 457.934 62.07 457.271 62.07ZM453.589 57.03C453.589 57.5713 453.678 58.0893 453.855 58.584C454.033 59.0787 454.285 59.522 454.611 59.914C454.938 60.306 455.325 60.6187 455.773 60.852C456.231 61.076 456.73 61.188 457.271 61.188C457.841 61.188 458.349 61.0713 458.797 60.838C459.255 60.5953 459.642 60.2733 459.959 59.872C460.286 59.4707 460.533 59.0273 460.701 58.542C460.869 58.0473 460.953 57.5433 460.953 57.03C460.953 56.4887 460.865 55.9707 460.687 55.476C460.51 54.9813 460.253 54.538 459.917 54.146C459.591 53.754 459.203 53.446 458.755 53.222C458.307 52.998 457.813 52.886 457.271 52.886C456.711 52.886 456.203 53.0027 455.745 53.236C455.297 53.4693 454.91 53.7867 454.583 54.188C454.266 54.58 454.019 55.0233 453.841 55.518C453.673 56.0127 453.589 56.5167 453.589 57.03ZM463.781 62V52.06H470.305V52.928H464.761V56.582H469.437V57.394H464.761V62H463.781ZM472.025 62V52.06H478.549V52.928H473.005V56.582H477.681V57.394H473.005V62H472.025ZM480.269 62V52.06H481.249V61.132H486.989V62H480.269ZM488.432 62V52.06H489.412V62H488.432ZM492.884 53.866V62H491.904V52.06H492.716L499.24 60.348V52.074H500.22V62H499.31L492.884 53.866ZM509.397 61.132V62H502.719V52.06H509.271V52.928H503.699V56.512H508.557V57.338H503.699V61.132H509.397Z" fill="#F56462"/>
</svg>
