<svg width="530" height="164" viewBox="0 0 530 164" fill="none" xmlns="http://www.w3.org/2000/svg">
<rect width="530" height="164" rx="12" fill="#F7F7F7"/>
<rect x="354.5" y="107.5" width="155" height="36" rx="11.5" fill="white" stroke="#4985FF"/>
<path d="M390.197 132V120.64H398.773V132H397.653V121.632H391.317V132H390.197ZM404.947 132.16C404.147 132.16 403.433 131.963 402.803 131.568C402.185 131.173 401.699 130.651 401.347 130C400.995 129.339 400.819 128.624 400.819 127.856C400.819 127.077 400.995 126.363 401.347 125.712C401.71 125.051 402.201 124.523 402.819 124.128C403.449 123.723 404.158 123.52 404.947 123.52C405.747 123.52 406.457 123.723 407.075 124.128C407.705 124.523 408.195 125.051 408.547 125.712C408.91 126.363 409.091 127.077 409.091 127.856C409.091 128.624 408.915 129.339 408.563 130C408.211 130.651 407.721 131.173 407.091 131.568C406.473 131.963 405.758 132.16 404.947 132.16ZM401.923 127.872C401.923 128.491 402.057 129.056 402.323 129.568C402.601 130.069 402.969 130.469 403.427 130.768C403.886 131.056 404.393 131.2 404.947 131.2C405.502 131.2 406.009 131.051 406.467 130.752C406.926 130.453 407.294 130.048 407.571 129.536C407.849 129.024 407.987 128.459 407.987 127.84C407.987 127.221 407.849 126.656 407.571 126.144C407.294 125.632 406.926 125.227 406.467 124.928C406.009 124.629 405.502 124.48 404.947 124.48C404.403 124.48 403.902 124.635 403.443 124.944C402.985 125.243 402.617 125.648 402.339 126.16C402.062 126.672 401.923 127.243 401.923 127.872ZM409.983 133.936V131.024H410.127C410.447 131.024 410.735 130.885 410.991 130.608C411.247 130.331 411.455 129.829 411.615 129.104C411.786 128.368 411.887 127.328 411.919 125.984L411.999 123.664H417.423V131.024H418.543V133.936H417.567V132H410.943V133.936H409.983ZM411.775 131.024H416.335V124.64H412.975L412.927 126.08C412.874 127.573 412.751 128.704 412.559 129.472C412.367 130.229 412.106 130.747 411.775 131.024ZM424.448 132.16C423.755 132.16 423.131 131.979 422.576 131.616C422.032 131.253 421.6 130.805 421.28 130.272V135.408H420.192V123.664H421.168V125.28C421.499 124.757 421.936 124.336 422.48 124.016C423.035 123.685 423.632 123.52 424.272 123.52C424.848 123.52 425.376 123.643 425.856 123.888C426.336 124.123 426.752 124.443 427.104 124.848C427.467 125.253 427.744 125.717 427.936 126.24C428.128 126.752 428.224 127.285 428.224 127.84C428.224 128.619 428.064 129.339 427.744 130C427.435 130.651 426.992 131.173 426.416 131.568C425.851 131.963 425.195 132.16 424.448 132.16ZM424.144 131.2C424.752 131.2 425.275 131.04 425.712 130.72C426.16 130.389 426.507 129.968 426.752 129.456C426.998 128.944 427.12 128.405 427.12 127.84C427.12 127.243 426.982 126.688 426.704 126.176C426.427 125.664 426.054 125.253 425.584 124.944C425.126 124.635 424.603 124.48 424.016 124.48C423.654 124.48 423.27 124.576 422.864 124.768C422.47 124.949 422.118 125.2 421.808 125.52C421.51 125.829 421.334 126.171 421.28 126.544V129.104C421.526 129.691 421.91 130.187 422.432 130.592C422.955 130.997 423.526 131.2 424.144 131.2ZM433.619 132.16C432.819 132.16 432.105 131.963 431.475 131.568C430.857 131.173 430.371 130.651 430.019 130C429.667 129.339 429.491 128.624 429.491 127.856C429.491 127.077 429.667 126.363 430.019 125.712C430.382 125.051 430.873 124.523 431.491 124.128C432.121 123.723 432.83 123.52 433.619 123.52C434.419 123.52 435.129 123.723 435.747 124.128C436.377 124.523 436.867 125.051 437.219 125.712C437.582 126.363 437.763 127.077 437.763 127.856C437.763 128.624 437.587 129.339 437.235 130C436.883 130.651 436.393 131.173 435.763 131.568C435.145 131.963 434.43 132.16 433.619 132.16ZM430.595 127.872C430.595 128.491 430.729 129.056 430.995 129.568C431.273 130.069 431.641 130.469 432.099 130.768C432.558 131.056 433.065 131.2 433.619 131.2C434.174 131.2 434.681 131.051 435.139 130.752C435.598 130.453 435.966 130.048 436.243 129.536C436.521 129.024 436.659 128.459 436.659 127.84C436.659 127.221 436.521 126.656 436.243 126.144C435.966 125.632 435.598 125.227 435.139 124.928C434.681 124.629 434.174 124.48 433.619 124.48C433.075 124.48 432.574 124.635 432.115 124.944C431.657 125.243 431.289 125.648 431.011 126.16C430.734 126.672 430.595 127.243 430.595 127.872ZM443.407 132.16C442.063 132.16 441.044 131.749 440.351 130.928C439.668 130.096 439.327 128.949 439.327 127.488C439.327 126.453 439.412 125.579 439.583 124.864C439.753 124.149 440.004 123.557 440.335 123.088C440.665 122.619 441.071 122.24 441.551 121.952C442.041 121.653 442.601 121.408 443.231 121.216L446.735 120.064L446.831 121.008L443.455 122.112C442.815 122.336 442.276 122.608 441.839 122.928C441.412 123.248 441.076 123.669 440.831 124.192C440.596 124.704 440.447 125.36 440.383 126.16C440.649 125.541 441.071 125.067 441.647 124.736C442.233 124.395 442.905 124.224 443.663 124.224C444.473 124.224 445.161 124.389 445.727 124.72C446.303 125.051 446.74 125.509 447.039 126.096C447.337 126.683 447.487 127.36 447.487 128.128C447.487 129.344 447.135 130.32 446.431 131.056C445.737 131.792 444.729 132.16 443.407 132.16ZM443.407 131.2C444.356 131.2 445.087 130.928 445.599 130.384C446.121 129.829 446.383 129.093 446.383 128.176C446.383 127.28 446.127 126.549 445.615 125.984C445.103 125.419 444.367 125.136 443.407 125.136C442.852 125.136 442.351 125.253 441.903 125.488C441.455 125.723 441.097 126.064 440.831 126.512C440.575 126.96 440.447 127.515 440.447 128.176C440.447 129.051 440.697 129.776 441.199 130.352C441.711 130.917 442.447 131.2 443.407 131.2ZM449.301 132V123.664H450.389V127.248H455.157V123.664H456.245V132H455.157V128.224H450.389V132H449.301ZM462.245 132.16C461.445 132.16 460.731 131.963 460.101 131.568C459.472 131.173 458.976 130.645 458.613 129.984C458.251 129.323 458.069 128.597 458.069 127.808C458.069 127.029 458.245 126.315 458.597 125.664C458.96 125.013 459.456 124.496 460.085 124.112C460.715 123.717 461.429 123.52 462.229 123.52C463.051 123.52 463.771 123.717 464.389 124.112C465.008 124.507 465.488 125.029 465.829 125.68C466.181 126.32 466.357 127.024 466.357 127.792C466.357 127.963 466.352 128.107 466.341 128.224H459.205C459.259 128.821 459.429 129.355 459.717 129.824C460.005 130.283 460.373 130.651 460.821 130.928C461.269 131.195 461.76 131.328 462.293 131.328C462.837 131.328 463.349 131.189 463.829 130.912C464.309 130.635 464.651 130.272 464.853 129.824L465.797 130.08C465.627 130.485 465.36 130.848 464.997 131.168C464.645 131.477 464.235 131.723 463.765 131.904C463.296 132.075 462.789 132.16 462.245 132.16ZM459.173 127.44H465.333C465.291 126.843 465.125 126.315 464.837 125.856C464.549 125.387 464.181 125.024 463.733 124.768C463.285 124.501 462.789 124.368 462.245 124.368C461.701 124.368 461.205 124.501 460.757 124.768C460.309 125.024 459.941 125.387 459.653 125.856C459.376 126.315 459.216 126.843 459.173 127.44ZM471.636 132.16C470.836 132.16 470.121 131.963 469.492 131.568C468.863 131.173 468.367 130.645 468.004 129.984C467.641 129.323 467.46 128.597 467.46 127.808C467.46 127.029 467.636 126.315 467.988 125.664C468.351 125.013 468.847 124.496 469.476 124.112C470.105 123.717 470.82 123.52 471.62 123.52C472.441 123.52 473.161 123.717 473.78 124.112C474.399 124.507 474.879 125.029 475.22 125.68C475.572 126.32 475.748 127.024 475.748 127.792C475.748 127.963 475.743 128.107 475.732 128.224H468.596C468.649 128.821 468.82 129.355 469.108 129.824C469.396 130.283 469.764 130.651 470.212 130.928C470.66 131.195 471.151 131.328 471.684 131.328C472.228 131.328 472.74 131.189 473.22 130.912C473.7 130.635 474.041 130.272 474.244 129.824L475.188 130.08C475.017 130.485 474.751 130.848 474.388 131.168C474.036 131.477 473.625 131.723 473.156 131.904C472.687 132.075 472.18 132.16 471.636 132.16ZM468.564 127.44H474.724C474.681 126.843 474.516 126.315 474.228 125.856C473.94 125.387 473.572 125.024 473.124 124.768C472.676 124.501 472.18 124.368 471.636 124.368C471.092 124.368 470.596 124.501 470.148 124.768C469.7 125.024 469.332 125.387 469.044 125.856C468.767 126.315 468.607 126.843 468.564 127.44Z" fill="#4985FF"/>
<path d="M103.912 54.96V72H101.2V64.488H92.608V72H89.92V54.96H92.608V62.088H101.2V54.96H103.912ZM106.367 68.328C106.367 67.528 106.591 66.832 107.039 66.24C107.487 65.632 108.111 65.168 108.911 64.848C109.727 64.512 110.663 64.344 111.719 64.344C112.279 64.344 112.847 64.392 113.423 64.488C114.015 64.568 114.535 64.688 114.983 64.848V64.056C114.983 63.176 114.719 62.488 114.191 61.992C113.663 61.496 112.903 61.248 111.911 61.248C111.223 61.248 110.559 61.368 109.919 61.608C109.279 61.848 108.615 62.2 107.927 62.664L107.039 60.888C107.871 60.344 108.703 59.936 109.535 59.664C110.383 59.376 111.271 59.232 112.199 59.232C113.879 59.232 115.199 59.68 116.159 60.576C117.135 61.456 117.623 62.712 117.623 64.344V69.024C117.623 69.328 117.671 69.544 117.767 69.672C117.879 69.8 118.063 69.872 118.319 69.888V72C118.079 72.048 117.863 72.08 117.671 72.096C117.479 72.112 117.319 72.12 117.191 72.12C116.615 72.12 116.183 71.984 115.895 71.712C115.623 71.424 115.463 71.104 115.415 70.752L115.343 70.032C114.799 70.736 114.103 71.28 113.255 71.664C112.407 72.048 111.551 72.24 110.687 72.24C109.855 72.24 109.111 72.072 108.455 71.736C107.799 71.384 107.287 70.912 106.919 70.32C106.551 69.728 106.367 69.064 106.367 68.328ZM114.359 69.096C114.775 68.68 114.983 68.288 114.983 67.92V66.48C114.039 66.128 113.079 65.952 112.103 65.952C111.143 65.952 110.359 66.152 109.751 66.552C109.159 66.936 108.863 67.456 108.863 68.112C108.863 68.656 109.079 69.16 109.511 69.624C109.959 70.072 110.599 70.296 111.431 70.296C111.991 70.296 112.535 70.184 113.063 69.96C113.591 69.736 114.023 69.448 114.359 69.096ZM125.026 72.192C123.746 72.192 122.666 71.96 121.786 71.496C120.922 71.016 120.258 70.36 119.794 69.528L121.93 68.568C122.202 69.032 122.586 69.4 123.082 69.672C123.578 69.928 124.178 70.056 124.882 70.056C125.73 70.056 126.386 69.88 126.85 69.528C127.314 69.176 127.546 68.712 127.546 68.136C127.546 67.608 127.354 67.184 126.97 66.864C126.586 66.528 126.042 66.352 125.338 66.336H124.042V64.656H125.386C125.866 64.656 126.25 64.504 126.538 64.2C126.842 63.88 126.994 63.48 126.994 63C126.994 62.52 126.81 62.136 126.442 61.848C126.09 61.544 125.554 61.392 124.834 61.392C124.21 61.392 123.69 61.512 123.274 61.752C122.874 61.976 122.554 62.312 122.314 62.76L120.322 61.704C120.738 60.936 121.338 60.336 122.122 59.904C122.922 59.472 123.866 59.256 124.954 59.256C126.218 59.256 127.266 59.552 128.098 60.144C128.93 60.736 129.346 61.576 129.346 62.664C129.346 63.24 129.21 63.784 128.938 64.296C128.666 64.792 128.242 65.16 127.666 65.4C128.434 65.64 129.01 66.032 129.394 66.576C129.794 67.12 129.994 67.768 129.994 68.52C129.994 69.288 129.778 69.952 129.346 70.512C128.93 71.056 128.346 71.472 127.594 71.76C126.842 72.048 125.986 72.192 125.026 72.192ZM132.428 72V59.448H139.148C139.948 59.448 140.604 59.6 141.116 59.904C141.644 60.192 142.036 60.568 142.292 61.032C142.548 61.496 142.676 61.992 142.676 62.52C142.676 63.208 142.508 63.816 142.172 64.344C141.852 64.872 141.388 65.272 140.78 65.544C141.5 65.752 142.084 66.12 142.532 66.648C142.996 67.176 143.228 67.84 143.228 68.64C143.228 69.744 142.836 70.584 142.052 71.16C141.268 71.72 140.228 72 138.932 72H132.428ZM134.924 64.824H138.476C138.972 64.824 139.38 64.64 139.7 64.272C140.02 63.904 140.18 63.472 140.18 62.976C140.18 62.512 140.028 62.112 139.724 61.776C139.42 61.44 139.02 61.272 138.524 61.272H134.924V64.824ZM134.924 70.176H138.86C139.372 70.176 139.804 70 140.156 69.648C140.508 69.28 140.684 68.848 140.684 68.352C140.684 67.84 140.516 67.408 140.18 67.056C139.844 66.704 139.42 66.528 138.908 66.528H134.924V70.176ZM144.828 68.328C144.828 67.528 145.052 66.832 145.5 66.24C145.948 65.632 146.572 65.168 147.372 64.848C148.188 64.512 149.124 64.344 150.18 64.344C150.74 64.344 151.308 64.392 151.884 64.488C152.476 64.568 152.996 64.688 153.444 64.848V64.056C153.444 63.176 153.18 62.488 152.652 61.992C152.124 61.496 151.364 61.248 150.372 61.248C149.684 61.248 149.02 61.368 148.38 61.608C147.74 61.848 147.076 62.2 146.388 62.664L145.5 60.888C146.332 60.344 147.164 59.936 147.996 59.664C148.844 59.376 149.732 59.232 150.66 59.232C152.34 59.232 153.66 59.68 154.62 60.576C155.596 61.456 156.084 62.712 156.084 64.344V69.024C156.084 69.328 156.132 69.544 156.228 69.672C156.34 69.8 156.524 69.872 156.78 69.888V72C156.54 72.048 156.324 72.08 156.132 72.096C155.94 72.112 155.78 72.12 155.652 72.12C155.076 72.12 154.644 71.984 154.356 71.712C154.084 71.424 153.924 71.104 153.876 70.752L153.804 70.032C153.26 70.736 152.564 71.28 151.716 71.664C150.868 72.048 150.012 72.24 149.148 72.24C148.316 72.24 147.572 72.072 146.916 71.736C146.26 71.384 145.748 70.912 145.38 70.32C145.012 69.728 144.828 69.064 144.828 68.328ZM152.82 69.096C153.236 68.68 153.444 68.288 153.444 67.92V66.48C152.5 66.128 151.54 65.952 150.564 65.952C149.604 65.952 148.82 66.152 148.212 66.552C147.62 66.936 147.324 67.456 147.324 68.112C147.324 68.656 147.54 69.16 147.972 69.624C148.42 70.072 149.06 70.296 149.892 70.296C150.452 70.296 150.996 70.184 151.524 69.96C152.052 69.736 152.484 69.448 152.82 69.096ZM159.287 72V59.448H161.927V64.44H167.759V59.448H170.399V72H167.759V66.72H161.927V72H159.287ZM173.584 72V59.472H176.224V68.472L182.584 59.448H184.984V72H182.344V63.192L176.056 72H173.584ZM193.827 72.24C192.531 72.24 191.395 71.944 190.419 71.352C189.443 70.76 188.683 69.976 188.139 69C187.595 68.008 187.323 66.928 187.323 65.76C187.323 64.576 187.595 63.488 188.139 62.496C188.683 61.504 189.443 60.712 190.419 60.12C191.395 59.528 192.539 59.232 193.851 59.232C195.163 59.232 196.299 59.536 197.259 60.144C198.219 60.736 198.955 61.52 199.467 62.496C199.995 63.472 200.259 64.52 200.259 65.64C200.259 66.04 200.235 66.36 200.187 66.6H190.131C190.179 67.336 190.379 67.984 190.731 68.544C191.099 69.088 191.555 69.52 192.099 69.84C192.659 70.144 193.267 70.296 193.923 70.296C194.627 70.296 195.291 70.12 195.915 69.768C196.539 69.416 196.971 68.952 197.211 68.376L199.467 69.024C199.035 69.968 198.315 70.744 197.307 71.352C196.315 71.944 195.155 72.24 193.827 72.24ZM190.059 64.848H197.643C197.579 64.128 197.371 63.496 197.019 62.952C196.667 62.392 196.211 61.96 195.651 61.656C195.107 61.336 194.499 61.176 193.827 61.176C193.171 61.176 192.563 61.336 192.003 61.656C191.459 61.96 191.011 62.392 190.659 62.952C190.307 63.496 190.107 64.128 190.059 64.848ZM208.342 72V59.448H215.062C215.862 59.448 216.518 59.6 217.03 59.904C217.558 60.192 217.95 60.568 218.206 61.032C218.462 61.496 218.59 61.992 218.59 62.52C218.59 63.208 218.422 63.816 218.086 64.344C217.766 64.872 217.302 65.272 216.694 65.544C217.414 65.752 217.998 66.12 218.446 66.648C218.91 67.176 219.142 67.84 219.142 68.64C219.142 69.744 218.75 70.584 217.966 71.16C217.182 71.72 216.142 72 214.846 72H208.342ZM210.838 64.824H214.39C214.886 64.824 215.294 64.64 215.614 64.272C215.934 63.904 216.094 63.472 216.094 62.976C216.094 62.512 215.942 62.112 215.638 61.776C215.334 61.44 214.934 61.272 214.438 61.272H210.838V64.824ZM210.838 70.176H214.774C215.286 70.176 215.718 70 216.07 69.648C216.422 69.28 216.598 68.848 216.598 68.352C216.598 67.84 216.43 67.408 216.094 67.056C215.758 66.704 215.334 66.528 214.822 66.528H210.838V70.176ZM220.742 68.328C220.742 67.528 220.966 66.832 221.414 66.24C221.862 65.632 222.486 65.168 223.286 64.848C224.102 64.512 225.038 64.344 226.094 64.344C226.654 64.344 227.222 64.392 227.798 64.488C228.39 64.568 228.91 64.688 229.358 64.848V64.056C229.358 63.176 229.094 62.488 228.566 61.992C228.038 61.496 227.278 61.248 226.286 61.248C225.598 61.248 224.934 61.368 224.294 61.608C223.654 61.848 222.99 62.2 222.302 62.664L221.414 60.888C222.246 60.344 223.078 59.936 223.91 59.664C224.758 59.376 225.646 59.232 226.574 59.232C228.254 59.232 229.574 59.68 230.534 60.576C231.51 61.456 231.998 62.712 231.998 64.344V69.024C231.998 69.328 232.046 69.544 232.142 69.672C232.254 69.8 232.438 69.872 232.694 69.888V72C232.454 72.048 232.238 72.08 232.046 72.096C231.854 72.112 231.694 72.12 231.566 72.12C230.99 72.12 230.558 71.984 230.27 71.712C229.998 71.424 229.838 71.104 229.79 70.752L229.718 70.032C229.174 70.736 228.478 71.28 227.63 71.664C226.782 72.048 225.926 72.24 225.062 72.24C224.23 72.24 223.486 72.072 222.83 71.736C222.174 71.384 221.662 70.912 221.294 70.32C220.926 69.728 220.742 69.064 220.742 68.328ZM228.734 69.096C229.15 68.68 229.358 68.288 229.358 67.92V66.48C228.414 66.128 227.454 65.952 226.478 65.952C225.518 65.952 224.734 66.152 224.126 66.552C223.534 66.936 223.238 67.456 223.238 68.112C223.238 68.656 223.454 69.16 223.886 69.624C224.334 70.072 224.974 70.296 225.806 70.296C226.366 70.296 226.91 70.184 227.438 69.96C227.966 69.736 228.398 69.448 228.734 69.096ZM235.201 72V59.448H237.817V64.416H239.065L242.761 59.448H245.689L241.105 65.52L246.217 72H243.169L239.041 66.792H237.817V72H235.201ZM247.274 68.328C247.274 67.528 247.498 66.832 247.946 66.24C248.394 65.632 249.018 65.168 249.818 64.848C250.634 64.512 251.57 64.344 252.626 64.344C253.186 64.344 253.754 64.392 254.33 64.488C254.922 64.568 255.442 64.688 255.89 64.848V64.056C255.89 63.176 255.626 62.488 255.098 61.992C254.57 61.496 253.81 61.248 252.818 61.248C252.13 61.248 251.466 61.368 250.826 61.608C250.186 61.848 249.522 62.2 248.834 62.664L247.946 60.888C248.778 60.344 249.61 59.936 250.442 59.664C251.29 59.376 252.178 59.232 253.106 59.232C254.786 59.232 256.106 59.68 257.066 60.576C258.042 61.456 258.53 62.712 258.53 64.344V69.024C258.53 69.328 258.578 69.544 258.674 69.672C258.786 69.8 258.97 69.872 259.226 69.888V72C258.986 72.048 258.77 72.08 258.578 72.096C258.386 72.112 258.226 72.12 258.098 72.12C257.522 72.12 257.09 71.984 256.802 71.712C256.53 71.424 256.37 71.104 256.322 70.752L256.25 70.032C255.706 70.736 255.01 71.28 254.162 71.664C253.314 72.048 252.458 72.24 251.594 72.24C250.762 72.24 250.018 72.072 249.362 71.736C248.706 71.384 248.194 70.912 247.826 70.32C247.458 69.728 247.274 69.064 247.274 68.328ZM255.266 69.096C255.682 68.68 255.89 68.288 255.89 67.92V66.48C254.946 66.128 253.986 65.952 253.01 65.952C252.05 65.952 251.266 66.152 250.658 66.552C250.066 66.936 249.77 67.456 249.77 68.112C249.77 68.656 249.986 69.16 250.418 69.624C250.866 70.072 251.506 70.296 252.338 70.296C252.898 70.296 253.442 70.184 253.97 69.96C254.498 69.736 254.93 69.448 255.266 69.096ZM261.732 72V59.448H264.372V64.44H270.204V59.448H272.844V72H270.204V66.72H264.372V72H261.732ZM281.717 72.24C280.421 72.24 279.285 71.944 278.309 71.352C277.333 70.744 276.573 69.944 276.029 68.952C275.485 67.96 275.213 66.88 275.213 65.712C275.213 64.544 275.477 63.472 276.005 62.496C276.549 61.504 277.301 60.712 278.261 60.12C279.237 59.528 280.389 59.232 281.717 59.232C283.013 59.232 284.125 59.52 285.053 60.096C285.997 60.656 286.701 61.408 287.165 62.352L284.597 63.168C284.309 62.64 283.901 62.232 283.373 61.944C282.861 61.64 282.293 61.488 281.669 61.488C280.965 61.488 280.325 61.672 279.749 62.04C279.189 62.392 278.741 62.888 278.405 63.528C278.085 64.168 277.925 64.896 277.925 65.712C277.925 66.528 278.093 67.256 278.429 67.896C278.781 68.536 279.237 69.048 279.797 69.432C280.373 69.8 281.005 69.984 281.693 69.984C282.333 69.984 282.941 69.816 283.517 69.48C284.093 69.144 284.477 68.736 284.669 68.256L287.261 69.024C286.845 69.968 286.149 70.744 285.173 71.352C284.197 71.944 283.045 72.24 281.717 72.24ZM289.436 72V59.472H292.076V68.472L298.436 59.448H300.836V72H298.196V63.192L291.908 72H289.436ZM303.99 72V59.472H306.63V68.472L312.99 59.448H315.39V72H312.75V63.192L306.462 72H303.99ZM103.912 78.96V96H101.2V88.488H92.608V96H89.92V78.96H92.608V86.088H101.2V78.96H103.912ZM106.367 92.328C106.367 91.528 106.591 90.832 107.039 90.24C107.487 89.632 108.111 89.168 108.911 88.848C109.727 88.512 110.663 88.344 111.719 88.344C112.279 88.344 112.847 88.392 113.423 88.488C114.015 88.568 114.535 88.688 114.983 88.848V88.056C114.983 87.176 114.719 86.488 114.191 85.992C113.663 85.496 112.903 85.248 111.911 85.248C111.223 85.248 110.559 85.368 109.919 85.608C109.279 85.848 108.615 86.2 107.927 86.664L107.039 84.888C107.871 84.344 108.703 83.936 109.535 83.664C110.383 83.376 111.271 83.232 112.199 83.232C113.879 83.232 115.199 83.68 116.159 84.576C117.135 85.456 117.623 86.712 117.623 88.344V93.024C117.623 93.328 117.671 93.544 117.767 93.672C117.879 93.8 118.063 93.872 118.319 93.888V96C118.079 96.048 117.863 96.08 117.671 96.096C117.479 96.112 117.319 96.12 117.191 96.12C116.615 96.12 116.183 95.984 115.895 95.712C115.623 95.424 115.463 95.104 115.415 94.752L115.343 94.032C114.799 94.736 114.103 95.28 113.255 95.664C112.407 96.048 111.551 96.24 110.687 96.24C109.855 96.24 109.111 96.072 108.455 95.736C107.799 95.384 107.287 94.912 106.919 94.32C106.551 93.728 106.367 93.064 106.367 92.328ZM114.359 93.096C114.775 92.68 114.983 92.288 114.983 91.92V90.48C114.039 90.128 113.079 89.952 112.103 89.952C111.143 89.952 110.359 90.152 109.751 90.552C109.159 90.936 108.863 91.456 108.863 92.112C108.863 92.656 109.079 93.16 109.511 93.624C109.959 94.072 110.599 94.296 111.431 94.296C111.991 94.296 112.535 94.184 113.063 93.96C113.591 93.736 114.023 93.448 114.359 93.096ZM125.026 96.192C123.746 96.192 122.666 95.96 121.786 95.496C120.922 95.016 120.258 94.36 119.794 93.528L121.93 92.568C122.202 93.032 122.586 93.4 123.082 93.672C123.578 93.928 124.178 94.056 124.882 94.056C125.73 94.056 126.386 93.88 126.85 93.528C127.314 93.176 127.546 92.712 127.546 92.136C127.546 91.608 127.354 91.184 126.97 90.864C126.586 90.528 126.042 90.352 125.338 90.336H124.042V88.656H125.386C125.866 88.656 126.25 88.504 126.538 88.2C126.842 87.88 126.994 87.48 126.994 87C126.994 86.52 126.81 86.136 126.442 85.848C126.09 85.544 125.554 85.392 124.834 85.392C124.21 85.392 123.69 85.512 123.274 85.752C122.874 85.976 122.554 86.312 122.314 86.76L120.322 85.704C120.738 84.936 121.338 84.336 122.122 83.904C122.922 83.472 123.866 83.256 124.954 83.256C126.218 83.256 127.266 83.552 128.098 84.144C128.93 84.736 129.346 85.576 129.346 86.664C129.346 87.24 129.21 87.784 128.938 88.296C128.666 88.792 128.242 89.16 127.666 89.4C128.434 89.64 129.01 90.032 129.394 90.576C129.794 91.12 129.994 91.768 129.994 92.52C129.994 93.288 129.778 93.952 129.346 94.512C128.93 95.056 128.346 95.472 127.594 95.76C126.842 96.048 125.986 96.192 125.026 96.192ZM132.428 96V83.448H139.148C139.948 83.448 140.604 83.6 141.116 83.904C141.644 84.192 142.036 84.568 142.292 85.032C142.548 85.496 142.676 85.992 142.676 86.52C142.676 87.208 142.508 87.816 142.172 88.344C141.852 88.872 141.388 89.272 140.78 89.544C141.5 89.752 142.084 90.12 142.532 90.648C142.996 91.176 143.228 91.84 143.228 92.64C143.228 93.744 142.836 94.584 142.052 95.16C141.268 95.72 140.228 96 138.932 96H132.428ZM134.924 88.824H138.476C138.972 88.824 139.38 88.64 139.7 88.272C140.02 87.904 140.18 87.472 140.18 86.976C140.18 86.512 140.028 86.112 139.724 85.776C139.42 85.44 139.02 85.272 138.524 85.272H134.924V88.824ZM134.924 94.176H138.86C139.372 94.176 139.804 94 140.156 93.648C140.508 93.28 140.684 92.848 140.684 92.352C140.684 91.84 140.516 91.408 140.18 91.056C139.844 90.704 139.42 90.528 138.908 90.528H134.924V94.176ZM144.828 92.328C144.828 91.528 145.052 90.832 145.5 90.24C145.948 89.632 146.572 89.168 147.372 88.848C148.188 88.512 149.124 88.344 150.18 88.344C150.74 88.344 151.308 88.392 151.884 88.488C152.476 88.568 152.996 88.688 153.444 88.848V88.056C153.444 87.176 153.18 86.488 152.652 85.992C152.124 85.496 151.364 85.248 150.372 85.248C149.684 85.248 149.02 85.368 148.38 85.608C147.74 85.848 147.076 86.2 146.388 86.664L145.5 84.888C146.332 84.344 147.164 83.936 147.996 83.664C148.844 83.376 149.732 83.232 150.66 83.232C152.34 83.232 153.66 83.68 154.62 84.576C155.596 85.456 156.084 86.712 156.084 88.344V93.024C156.084 93.328 156.132 93.544 156.228 93.672C156.34 93.8 156.524 93.872 156.78 93.888V96C156.54 96.048 156.324 96.08 156.132 96.096C155.94 96.112 155.78 96.12 155.652 96.12C155.076 96.12 154.644 95.984 154.356 95.712C154.084 95.424 153.924 95.104 153.876 94.752L153.804 94.032C153.26 94.736 152.564 95.28 151.716 95.664C150.868 96.048 150.012 96.24 149.148 96.24C148.316 96.24 147.572 96.072 146.916 95.736C146.26 95.384 145.748 94.912 145.38 94.32C145.012 93.728 144.828 93.064 144.828 92.328ZM152.82 93.096C153.236 92.68 153.444 92.288 153.444 91.92V90.48C152.5 90.128 151.54 89.952 150.564 89.952C149.604 89.952 148.82 90.152 148.212 90.552C147.62 90.936 147.324 91.456 147.324 92.112C147.324 92.656 147.54 93.16 147.972 93.624C148.42 94.072 149.06 94.296 149.892 94.296C150.452 94.296 150.996 94.184 151.524 93.96C152.052 93.736 152.484 93.448 152.82 93.096ZM159.287 96V83.448H161.927V88.44H167.759V83.448H170.399V96H167.759V90.72H161.927V96H159.287ZM173.584 96V83.472H176.224V92.472L182.584 83.448H184.984V96H182.344V87.192L176.056 96H173.584ZM193.827 96.24C192.531 96.24 191.395 95.944 190.419 95.352C189.443 94.76 188.683 93.976 188.139 93C187.595 92.008 187.323 90.928 187.323 89.76C187.323 88.576 187.595 87.488 188.139 86.496C188.683 85.504 189.443 84.712 190.419 84.12C191.395 83.528 192.539 83.232 193.851 83.232C195.163 83.232 196.299 83.536 197.259 84.144C198.219 84.736 198.955 85.52 199.467 86.496C199.995 87.472 200.259 88.52 200.259 89.64C200.259 90.04 200.235 90.36 200.187 90.6H190.131C190.179 91.336 190.379 91.984 190.731 92.544C191.099 93.088 191.555 93.52 192.099 93.84C192.659 94.144 193.267 94.296 193.923 94.296C194.627 94.296 195.291 94.12 195.915 93.768C196.539 93.416 196.971 92.952 197.211 92.376L199.467 93.024C199.035 93.968 198.315 94.744 197.307 95.352C196.315 95.944 195.155 96.24 193.827 96.24ZM190.059 88.848H197.643C197.579 88.128 197.371 87.496 197.019 86.952C196.667 86.392 196.211 85.96 195.651 85.656C195.107 85.336 194.499 85.176 193.827 85.176C193.171 85.176 192.563 85.336 192.003 85.656C191.459 85.96 191.011 86.392 190.659 86.952C190.307 87.496 190.107 88.128 190.059 88.848ZM208.342 96V83.448H215.062C215.862 83.448 216.518 83.6 217.03 83.904C217.558 84.192 217.95 84.568 218.206 85.032C218.462 85.496 218.59 85.992 218.59 86.52C218.59 87.208 218.422 87.816 218.086 88.344C217.766 88.872 217.302 89.272 216.694 89.544C217.414 89.752 217.998 90.12 218.446 90.648C218.91 91.176 219.142 91.84 219.142 92.64C219.142 93.744 218.75 94.584 217.966 95.16C217.182 95.72 216.142 96 214.846 96H208.342ZM210.838 88.824H214.39C214.886 88.824 215.294 88.64 215.614 88.272C215.934 87.904 216.094 87.472 216.094 86.976C216.094 86.512 215.942 86.112 215.638 85.776C215.334 85.44 214.934 85.272 214.438 85.272H210.838V88.824ZM210.838 94.176H214.774C215.286 94.176 215.718 94 216.07 93.648C216.422 93.28 216.598 92.848 216.598 92.352C216.598 91.84 216.43 91.408 216.094 91.056C215.758 90.704 215.334 90.528 214.822 90.528H210.838V94.176ZM220.742 92.328C220.742 91.528 220.966 90.832 221.414 90.24C221.862 89.632 222.486 89.168 223.286 88.848C224.102 88.512 225.038 88.344 226.094 88.344C226.654 88.344 227.222 88.392 227.798 88.488C228.39 88.568 228.91 88.688 229.358 88.848V88.056C229.358 87.176 229.094 86.488 228.566 85.992C228.038 85.496 227.278 85.248 226.286 85.248C225.598 85.248 224.934 85.368 224.294 85.608C223.654 85.848 222.99 86.2 222.302 86.664L221.414 84.888C222.246 84.344 223.078 83.936 223.91 83.664C224.758 83.376 225.646 83.232 226.574 83.232C228.254 83.232 229.574 83.68 230.534 84.576C231.51 85.456 231.998 86.712 231.998 88.344V93.024C231.998 93.328 232.046 93.544 232.142 93.672C232.254 93.8 232.438 93.872 232.694 93.888V96C232.454 96.048 232.238 96.08 232.046 96.096C231.854 96.112 231.694 96.12 231.566 96.12C230.99 96.12 230.558 95.984 230.27 95.712C229.998 95.424 229.838 95.104 229.79 94.752L229.718 94.032C229.174 94.736 228.478 95.28 227.63 95.664C226.782 96.048 225.926 96.24 225.062 96.24C224.23 96.24 223.486 96.072 222.83 95.736C222.174 95.384 221.662 94.912 221.294 94.32C220.926 93.728 220.742 93.064 220.742 92.328ZM228.734 93.096C229.15 92.68 229.358 92.288 229.358 91.92V90.48C228.414 90.128 227.454 89.952 226.478 89.952C225.518 89.952 224.734 90.152 224.126 90.552C223.534 90.936 223.238 91.456 223.238 92.112C223.238 92.656 223.454 93.16 223.886 93.624C224.334 94.072 224.974 94.296 225.806 94.296C226.366 94.296 226.91 94.184 227.438 93.96C227.966 93.736 228.398 93.448 228.734 93.096ZM235.201 96V83.448H237.817V88.416H239.065L242.761 83.448H245.689L241.105 89.52L246.217 96H243.169L239.041 90.792H237.817V96H235.201ZM247.274 92.328C247.274 91.528 247.498 90.832 247.946 90.24C248.394 89.632 249.018 89.168 249.818 88.848C250.634 88.512 251.57 88.344 252.626 88.344C253.186 88.344 253.754 88.392 254.33 88.488C254.922 88.568 255.442 88.688 255.89 88.848V88.056C255.89 87.176 255.626 86.488 255.098 85.992C254.57 85.496 253.81 85.248 252.818 85.248C252.13 85.248 251.466 85.368 250.826 85.608C250.186 85.848 249.522 86.2 248.834 86.664L247.946 84.888C248.778 84.344 249.61 83.936 250.442 83.664C251.29 83.376 252.178 83.232 253.106 83.232C254.786 83.232 256.106 83.68 257.066 84.576C258.042 85.456 258.53 86.712 258.53 88.344V93.024C258.53 93.328 258.578 93.544 258.674 93.672C258.786 93.8 258.97 93.872 259.226 93.888V96C258.986 96.048 258.77 96.08 258.578 96.096C258.386 96.112 258.226 96.12 258.098 96.12C257.522 96.12 257.09 95.984 256.802 95.712C256.53 95.424 256.37 95.104 256.322 94.752L256.25 94.032C255.706 94.736 255.01 95.28 254.162 95.664C253.314 96.048 252.458 96.24 251.594 96.24C250.762 96.24 250.018 96.072 249.362 95.736C248.706 95.384 248.194 94.912 247.826 94.32C247.458 93.728 247.274 93.064 247.274 92.328ZM255.266 93.096C255.682 92.68 255.89 92.288 255.89 91.92V90.48C254.946 90.128 253.986 89.952 253.01 89.952C252.05 89.952 251.266 90.152 250.658 90.552C250.066 90.936 249.77 91.456 249.77 92.112C249.77 92.656 249.986 93.16 250.418 93.624C250.866 94.072 251.506 94.296 252.338 94.296C252.898 94.296 253.442 94.184 253.97 93.96C254.498 93.736 254.93 93.448 255.266 93.096ZM261.732 96V83.448H264.372V88.44H270.204V83.448H272.844V96H270.204V90.72H264.372V96H261.732ZM281.717 96.24C280.421 96.24 279.285 95.944 278.309 95.352C277.333 94.744 276.573 93.944 276.029 92.952C275.485 91.96 275.213 90.88 275.213 89.712C275.213 88.544 275.477 87.472 276.005 86.496C276.549 85.504 277.301 84.712 278.261 84.12C279.237 83.528 280.389 83.232 281.717 83.232C283.013 83.232 284.125 83.52 285.053 84.096C285.997 84.656 286.701 85.408 287.165 86.352L284.597 87.168C284.309 86.64 283.901 86.232 283.373 85.944C282.861 85.64 282.293 85.488 281.669 85.488C280.965 85.488 280.325 85.672 279.749 86.04C279.189 86.392 278.741 86.888 278.405 87.528C278.085 88.168 277.925 88.896 277.925 89.712C277.925 90.528 278.093 91.256 278.429 91.896C278.781 92.536 279.237 93.048 279.797 93.432C280.373 93.8 281.005 93.984 281.693 93.984C282.333 93.984 282.941 93.816 283.517 93.48C284.093 93.144 284.477 92.736 284.669 92.256L287.261 93.024C286.845 93.968 286.149 94.744 285.173 95.352C284.197 95.944 283.045 96.24 281.717 96.24ZM289.436 96V83.472H292.076V92.472L298.436 83.448H300.836V96H298.196V87.192L291.908 96H289.436ZM303.99 96V83.472H306.63V92.472L312.99 83.448H315.39V96H312.75V87.192L306.462 96H303.99Z" fill="#4985FF"/>
<path d="M100.924 138V127.596L96.298 135.678H95.506L90.862 127.596V138H89.602V125.22H90.898L95.884 133.968L100.906 125.22H102.184V138H100.924ZM105.135 126.66V124.86H106.359V126.66H105.135ZM105.135 138V128.622H106.359V138H105.135ZM116.939 138H115.715V132.762C115.715 131.658 115.547 130.854 115.211 130.35C114.887 129.834 114.383 129.576 113.699 129.576C113.219 129.576 112.745 129.696 112.277 129.936C111.809 130.164 111.395 130.482 111.035 130.89C110.687 131.286 110.435 131.742 110.279 132.258V138H109.055V128.622H110.171V130.746C110.543 130.062 111.089 129.51 111.809 129.09C112.529 128.67 113.309 128.46 114.149 128.46C114.845 128.46 115.397 128.628 115.805 128.964C116.213 129.288 116.501 129.756 116.669 130.368C116.849 130.968 116.939 131.682 116.939 132.51V138ZM122.627 138.18C121.859 138.18 121.145 138.054 120.485 137.802C119.837 137.538 119.267 137.154 118.775 136.65L119.279 135.786C119.807 136.278 120.335 136.638 120.863 136.866C121.403 137.082 121.973 137.19 122.573 137.19C123.293 137.19 123.881 137.046 124.337 136.758C124.805 136.458 125.039 136.032 125.039 135.48C125.039 135.108 124.925 134.826 124.697 134.634C124.481 134.43 124.163 134.268 123.743 134.148C123.335 134.028 122.843 133.89 122.267 133.734C121.619 133.554 121.073 133.368 120.629 133.176C120.197 132.972 119.867 132.72 119.639 132.42C119.423 132.108 119.315 131.706 119.315 131.214C119.315 130.614 119.465 130.11 119.765 129.702C120.077 129.294 120.497 128.988 121.025 128.784C121.565 128.568 122.165 128.46 122.825 128.46C123.545 128.46 124.181 128.574 124.733 128.802C125.285 129.03 125.735 129.348 126.083 129.756L125.489 130.584C125.165 130.2 124.763 129.918 124.283 129.738C123.815 129.546 123.305 129.45 122.753 129.45C122.369 129.45 122.003 129.504 121.655 129.612C121.307 129.708 121.019 129.876 120.791 130.116C120.575 130.344 120.467 130.662 120.467 131.07C120.467 131.574 120.653 131.922 121.025 132.114C121.397 132.306 121.961 132.51 122.717 132.726C123.425 132.918 124.043 133.11 124.571 133.302C125.099 133.494 125.507 133.752 125.795 134.076C126.083 134.388 126.227 134.826 126.227 135.39C126.227 136.266 125.897 136.95 125.237 137.442C124.577 137.934 123.707 138.18 122.627 138.18ZM134.946 138L131.472 133.194L129.474 135.066V138H128.25V124.86H129.474V133.752L134.784 128.64H136.134L132.3 132.474L136.278 138H134.946ZM137.993 139.458L138.299 137.946H137.885V136.236H139.073V137.946L138.623 139.458H137.993ZM156.29 134.706C156.29 135.342 156.128 135.912 155.804 136.416C155.48 136.908 155.042 137.298 154.49 137.586C153.95 137.862 153.356 138 152.708 138H146.678V125.22H152.834C153.434 125.22 153.95 125.382 154.382 125.706C154.814 126.018 155.15 126.426 155.39 126.93C155.63 127.422 155.75 127.938 155.75 128.478C155.75 129.114 155.588 129.702 155.264 130.242C154.94 130.782 154.49 131.184 153.914 131.448C154.634 131.664 155.21 132.066 155.642 132.654C156.074 133.242 156.29 133.926 156.29 134.706ZM147.938 126.318V131.034H152.33C152.75 131.034 153.122 130.926 153.446 130.71C153.782 130.482 154.04 130.194 154.22 129.846C154.412 129.486 154.508 129.096 154.508 128.676C154.508 128.244 154.418 127.848 154.238 127.488C154.058 127.128 153.812 126.846 153.5 126.642C153.188 126.426 152.834 126.318 152.438 126.318H147.938ZM155.03 134.49C155.03 134.07 154.934 133.674 154.742 133.302C154.55 132.93 154.286 132.63 153.95 132.402C153.626 132.174 153.254 132.06 152.834 132.06H147.938V136.902H152.708C153.14 136.902 153.53 136.788 153.878 136.56C154.226 136.332 154.502 136.038 154.706 135.678C154.922 135.306 155.03 134.91 155.03 134.49ZM158.194 125.22L162.37 132.096L166.582 125.22H167.95L163 133.248V138H161.74V133.212L156.808 125.22H158.194Z" fill="#4985FF"/>
<path d="M447.668 39.6914C447.668 40.8242 447.254 41.7578 446.426 42.4922C445.598 43.2266 444.402 43.6797 442.84 43.8516V46.3945H441.281V43.9219C439.344 43.8906 437.754 43.5938 436.512 43.0312V40.5586C437.184 40.8867 437.969 41.1641 438.867 41.3906C439.766 41.6094 440.57 41.7227 441.281 41.7305V37.3477L440.297 36.9844C439.016 36.4922 438.078 35.9062 437.484 35.2266C436.898 34.5391 436.605 33.6914 436.605 32.6836C436.605 31.6055 437.023 30.7188 437.859 30.0234C438.703 29.3281 439.844 28.9062 441.281 28.7578V26.7891H442.84V28.7227C444.426 28.7773 445.93 29.0977 447.352 29.6836L446.496 31.8281C445.27 31.3438 444.051 31.0547 442.84 30.9609V35.2266L443.73 35.5664C445.215 36.1367 446.242 36.7383 446.812 37.3711C447.383 38.0039 447.668 38.7773 447.668 39.6914ZM444.902 39.8672C444.902 39.4141 444.742 39.043 444.422 38.7539C444.109 38.457 443.582 38.1719 442.84 37.8984V41.6367C444.215 41.4258 444.902 40.8359 444.902 39.8672ZM439.359 32.6602C439.359 33.1055 439.496 33.4766 439.77 33.7734C440.051 34.0703 440.555 34.3633 441.281 34.6523V31.0078C440.656 31.1016 440.18 31.293 439.852 31.582C439.523 31.8711 439.359 32.2305 439.359 32.6602ZM464.297 45H461.543V33.9375C461.543 32.6172 461.574 31.5703 461.637 30.7969C461.457 30.9844 461.234 31.1914 460.969 31.418C460.711 31.6445 459.836 32.3633 458.344 33.5742L456.961 31.8281L462 27.8672H464.297V45ZM480.891 31.8047C480.891 32.8906 480.574 33.7969 479.941 34.5234C479.309 35.2422 478.418 35.7266 477.27 35.9766V36.0703C478.645 36.2422 479.676 36.6719 480.363 37.3594C481.051 38.0391 481.395 38.9453 481.395 40.0781C481.395 41.7266 480.812 43 479.648 43.8984C478.484 44.7891 476.828 45.2344 474.68 45.2344C472.781 45.2344 471.18 44.9258 469.875 44.3086V41.8594C470.602 42.2188 471.371 42.4961 472.184 42.6914C472.996 42.8867 473.777 42.9844 474.527 42.9844C475.855 42.9844 476.848 42.7383 477.504 42.2461C478.16 41.7539 478.488 40.9922 478.488 39.9609C478.488 39.0469 478.125 38.375 477.398 37.9453C476.672 37.5156 475.531 37.3008 473.977 37.3008H472.488V35.0625H474C476.734 35.0625 478.102 34.1172 478.102 32.2266C478.102 31.4922 477.863 30.9258 477.387 30.5273C476.91 30.1289 476.207 29.9297 475.277 29.9297C474.629 29.9297 474.004 30.0234 473.402 30.2109C472.801 30.3906 472.09 30.7461 471.27 31.2773L469.922 29.3555C471.492 28.1992 473.316 27.6211 475.395 27.6211C477.121 27.6211 478.469 27.9922 479.438 28.7344C480.406 29.4766 480.891 30.5 480.891 31.8047ZM495.246 36.4336C495.246 39.4102 494.766 41.6211 493.805 43.0664C492.852 44.5117 491.391 45.2344 489.422 45.2344C487.516 45.2344 486.07 44.4883 485.086 42.9961C484.102 41.5039 483.609 39.3164 483.609 36.4336C483.609 33.4102 484.086 31.1836 485.039 29.7539C486 28.3164 487.461 27.5977 489.422 27.5977C491.336 27.5977 492.785 28.3477 493.77 29.8477C494.754 31.3477 495.246 33.543 495.246 36.4336ZM486.398 36.4336C486.398 38.7695 486.637 40.4375 487.113 41.4375C487.598 42.4375 488.367 42.9375 489.422 42.9375C490.477 42.9375 491.246 42.4297 491.73 41.4141C492.223 40.3984 492.469 38.7383 492.469 36.4336C492.469 34.1367 492.223 32.4766 491.73 31.4531C491.246 30.4219 490.477 29.9062 489.422 29.9062C488.367 29.9062 487.598 30.4102 487.113 31.418C486.637 32.4258 486.398 34.0977 486.398 36.4336ZM508.957 36.4336C508.957 39.4102 508.477 41.6211 507.516 43.0664C506.562 44.5117 505.102 45.2344 503.133 45.2344C501.227 45.2344 499.781 44.4883 498.797 42.9961C497.812 41.5039 497.32 39.3164 497.32 36.4336C497.32 33.4102 497.797 31.1836 498.75 29.7539C499.711 28.3164 501.172 27.5977 503.133 27.5977C505.047 27.5977 506.496 28.3477 507.48 29.8477C508.465 31.3477 508.957 33.543 508.957 36.4336ZM500.109 36.4336C500.109 38.7695 500.348 40.4375 500.824 41.4375C501.309 42.4375 502.078 42.9375 503.133 42.9375C504.188 42.9375 504.957 42.4297 505.441 41.4141C505.934 40.3984 506.18 38.7383 506.18 36.4336C506.18 34.1367 505.934 32.4766 505.441 31.4531C504.957 30.4219 504.188 29.9062 503.133 29.9062C502.078 29.9062 501.309 30.4102 500.824 31.418C500.348 32.4258 500.109 34.0977 500.109 36.4336Z" fill="#8D8E8D"/>
<path d="M94.408 28.31H95.596L97.396 32.846L99.214 28.31H100.42L98.188 33.764L100.636 39.542L105.262 28.22H106.63L101.212 41H100.096L97.414 34.682L94.714 41H93.616L88.216 28.22H89.566L94.21 39.542L96.64 33.764L94.408 28.31ZM106.471 38.3C106.471 37.724 106.639 37.226 106.975 36.806C107.311 36.374 107.773 36.038 108.361 35.798C108.961 35.558 109.651 35.438 110.431 35.438C110.887 35.438 111.361 35.48 111.853 35.564C112.345 35.636 112.783 35.738 113.167 35.87V35.078C113.167 34.286 112.933 33.656 112.465 33.188C111.997 32.72 111.349 32.486 110.521 32.486C110.029 32.486 109.537 32.582 109.045 32.774C108.553 32.954 108.043 33.224 107.515 33.584L107.047 32.72C107.659 32.3 108.259 31.988 108.847 31.784C109.435 31.568 110.035 31.46 110.647 31.46C111.799 31.46 112.711 31.79 113.383 32.45C114.055 33.11 114.391 34.022 114.391 35.186V39.524C114.391 39.848 114.541 40.016 114.841 40.028V41C114.577 41.036 114.391 41.048 114.283 41.036C113.983 41.024 113.755 40.928 113.599 40.748C113.443 40.568 113.359 40.376 113.347 40.172L113.329 39.488C112.909 40.028 112.363 40.448 111.691 40.748C111.019 41.036 110.335 41.18 109.639 41.18C109.027 41.18 108.481 41.054 108.001 40.802C107.521 40.538 107.143 40.19 106.867 39.758C106.603 39.314 106.471 38.828 106.471 38.3ZM112.753 39.02C113.029 38.696 113.167 38.396 113.167 38.12V36.752C112.339 36.428 111.475 36.266 110.575 36.266C109.699 36.266 108.991 36.44 108.451 36.788C107.911 37.136 107.641 37.61 107.641 38.21C107.641 38.726 107.839 39.194 108.235 39.614C108.643 40.034 109.207 40.244 109.927 40.244C110.515 40.244 111.061 40.13 111.565 39.902C112.081 39.674 112.477 39.38 112.753 39.02ZM121.716 32.702C120.9 32.726 120.18 32.954 119.556 33.386C118.944 33.818 118.512 34.412 118.26 35.168V41H117.036V31.622H118.188V33.872C118.512 33.212 118.938 32.678 119.466 32.27C120.006 31.862 120.576 31.634 121.176 31.586C121.296 31.574 121.398 31.568 121.482 31.568C121.566 31.568 121.644 31.574 121.716 31.586V32.702ZM126.862 41.126C126.214 41.126 125.62 40.994 125.08 40.73C124.552 40.466 124.09 40.112 123.694 39.668C123.31 39.212 123.01 38.696 122.794 38.12C122.578 37.544 122.47 36.95 122.47 36.338C122.47 35.462 122.656 34.658 123.028 33.926C123.4 33.182 123.91 32.588 124.558 32.144C125.218 31.688 125.974 31.46 126.826 31.46C127.63 31.46 128.326 31.664 128.914 32.072C129.514 32.48 130.018 32.984 130.426 33.584V31.622H131.524V41.036C131.524 41.912 131.314 42.644 130.894 43.232C130.474 43.82 129.916 44.264 129.22 44.564C128.524 44.864 127.762 45.014 126.934 45.014C125.854 45.014 124.984 44.822 124.324 44.438C123.676 44.054 123.142 43.538 122.722 42.89L123.478 42.296C123.85 42.884 124.342 43.322 124.954 43.61C125.578 43.898 126.238 44.042 126.934 44.042C127.546 44.042 128.104 43.928 128.608 43.7C129.124 43.484 129.532 43.154 129.832 42.71C130.144 42.266 130.3 41.708 130.3 41.036V39.182C129.94 39.77 129.448 40.244 128.824 40.604C128.2 40.952 127.546 41.126 126.862 41.126ZM127.204 40.1C127.696 40.1 128.164 39.986 128.608 39.758C129.052 39.53 129.424 39.242 129.724 38.894C130.036 38.534 130.228 38.162 130.3 37.778V34.88C130.12 34.424 129.862 34.022 129.526 33.674C129.19 33.314 128.806 33.038 128.374 32.846C127.942 32.642 127.504 32.54 127.06 32.54C126.364 32.54 125.764 32.732 125.26 33.116C124.768 33.488 124.384 33.968 124.108 34.556C123.844 35.132 123.712 35.732 123.712 36.356C123.712 37.028 123.868 37.652 124.18 38.228C124.492 38.792 124.912 39.248 125.44 39.596C125.968 39.932 126.556 40.1 127.204 40.1ZM133.471 38.3C133.471 37.724 133.639 37.226 133.975 36.806C134.311 36.374 134.773 36.038 135.361 35.798C135.961 35.558 136.651 35.438 137.431 35.438C137.887 35.438 138.361 35.48 138.853 35.564C139.345 35.636 139.783 35.738 140.167 35.87V35.078C140.167 34.286 139.933 33.656 139.465 33.188C138.997 32.72 138.349 32.486 137.521 32.486C137.029 32.486 136.537 32.582 136.045 32.774C135.553 32.954 135.043 33.224 134.515 33.584L134.047 32.72C134.659 32.3 135.259 31.988 135.847 31.784C136.435 31.568 137.035 31.46 137.647 31.46C138.799 31.46 139.711 31.79 140.383 32.45C141.055 33.11 141.391 34.022 141.391 35.186V39.524C141.391 39.848 141.541 40.016 141.841 40.028V41C141.577 41.036 141.391 41.048 141.283 41.036C140.983 41.024 140.755 40.928 140.599 40.748C140.443 40.568 140.359 40.376 140.347 40.172L140.329 39.488C139.909 40.028 139.363 40.448 138.691 40.748C138.019 41.036 137.335 41.18 136.639 41.18C136.027 41.18 135.481 41.054 135.001 40.802C134.521 40.538 134.143 40.19 133.867 39.758C133.603 39.314 133.471 38.828 133.471 38.3ZM139.753 39.02C140.029 38.696 140.167 38.396 140.167 38.12V36.752C139.339 36.428 138.475 36.266 137.575 36.266C136.699 36.266 135.991 36.44 135.451 36.788C134.911 37.136 134.641 37.61 134.641 38.21C134.641 38.726 134.839 39.194 135.235 39.614C135.643 40.034 136.207 40.244 136.927 40.244C137.515 40.244 138.061 40.13 138.565 39.902C139.081 39.674 139.477 39.38 139.753 39.02ZM157.986 41H156.762V35.762C156.762 34.682 156.588 33.884 156.24 33.368C155.892 32.84 155.376 32.576 154.692 32.576C153.972 32.576 153.336 32.828 152.784 33.332C152.232 33.836 151.842 34.484 151.614 35.276V41H150.39V35.762C150.39 34.658 150.216 33.854 149.868 33.35C149.532 32.834 149.022 32.576 148.338 32.576C147.63 32.576 146.994 32.822 146.43 33.314C145.878 33.806 145.488 34.454 145.26 35.258V41H144.036V31.622H145.152V33.746C145.536 33.026 146.04 32.468 146.664 32.072C147.288 31.664 147.978 31.46 148.734 31.46C149.514 31.46 150.144 31.688 150.624 32.144C151.104 32.588 151.398 33.164 151.506 33.872C152.37 32.264 153.576 31.46 155.124 31.46C156.18 31.46 156.918 31.832 157.338 32.576C157.77 33.308 157.986 34.286 157.986 35.51V41ZM160.577 29.66V27.86H161.801V29.66H160.577ZM160.577 41V31.622H161.801V41H160.577ZM172.38 41H171.156V35.762C171.156 34.658 170.988 33.854 170.652 33.35C170.328 32.834 169.824 32.576 169.14 32.576C168.66 32.576 168.186 32.696 167.718 32.936C167.25 33.164 166.836 33.482 166.476 33.89C166.128 34.286 165.876 34.742 165.72 35.258V41H164.496V31.622H165.612V33.746C165.984 33.062 166.53 32.51 167.25 32.09C167.97 31.67 168.75 31.46 169.59 31.46C170.286 31.46 170.838 31.628 171.246 31.964C171.654 32.288 171.942 32.756 172.11 33.368C172.29 33.968 172.38 34.682 172.38 35.51V41ZM178.753 41.126C178.105 41.126 177.511 40.994 176.971 40.73C176.443 40.466 175.981 40.112 175.585 39.668C175.201 39.212 174.901 38.696 174.685 38.12C174.469 37.544 174.361 36.95 174.361 36.338C174.361 35.462 174.547 34.658 174.919 33.926C175.291 33.182 175.801 32.588 176.449 32.144C177.109 31.688 177.865 31.46 178.717 31.46C179.521 31.46 180.217 31.664 180.805 32.072C181.405 32.48 181.909 32.984 182.317 33.584V31.622H183.415V41.036C183.415 41.912 183.205 42.644 182.785 43.232C182.365 43.82 181.807 44.264 181.111 44.564C180.415 44.864 179.653 45.014 178.825 45.014C177.745 45.014 176.875 44.822 176.215 44.438C175.567 44.054 175.033 43.538 174.613 42.89L175.369 42.296C175.741 42.884 176.233 43.322 176.845 43.61C177.469 43.898 178.129 44.042 178.825 44.042C179.437 44.042 179.995 43.928 180.499 43.7C181.015 43.484 181.423 43.154 181.723 42.71C182.035 42.266 182.191 41.708 182.191 41.036V39.182C181.831 39.77 181.339 40.244 180.715 40.604C180.091 40.952 179.437 41.126 178.753 41.126ZM179.095 40.1C179.587 40.1 180.055 39.986 180.499 39.758C180.943 39.53 181.315 39.242 181.615 38.894C181.927 38.534 182.119 38.162 182.191 37.778V34.88C182.011 34.424 181.753 34.022 181.417 33.674C181.081 33.314 180.697 33.038 180.265 32.846C179.833 32.642 179.395 32.54 178.951 32.54C178.255 32.54 177.655 32.732 177.151 33.116C176.659 33.488 176.275 33.968 175.999 34.556C175.735 35.132 175.603 35.732 175.603 36.356C175.603 37.028 175.759 37.652 176.071 38.228C176.383 38.792 176.803 39.248 177.331 39.596C177.859 39.932 178.447 40.1 179.095 40.1Z" fill="#4985FF"/>
<path d="M34 116L37.1432 125.674H47.3148L39.0858 131.652L42.229 141.326L34 135.348L25.771 141.326L28.9142 131.652L20.6852 125.674H30.8568L34 116Z" fill="#C4C4C4"/>
<rect x="20" y="20" width="48" height="48" fill="#C4C4C4"/>
<path d="M37.6622 33.584H40.7222L44.1062 42.476L47.5262 33.584H50.5862L46.1582 44.708L50.5502 55.256L59.1902 33.44H62.7182L52.0262 59H49.2182L44.1422 46.94L39.0302 59H36.2222L25.5662 33.44H29.0582L37.7342 55.256L42.0902 44.708L37.6622 33.584Z" fill="white"/>
</svg>
