<svg width="103" height="21" viewBox="0 0 103 21" fill="none" xmlns="http://www.w3.org/2000/svg">
<path d="M0 2.80428H5.05477V20.6432H0V2.80428Z" fill="#4985FF"/>
<path d="M13.7313 6.8053H8.24253V2.80428H24.2493V6.8053H18.7861V20.6432H13.7313V6.8053Z" fill="#4985FF"/>
<path d="M36.0693 21C34.1972 21 32.5123 20.6092 31.0145 19.8277C29.5338 19.0292 28.368 17.9249 27.517 16.5148C26.6661 15.1047 26.2406 13.5076 26.2406 11.7237C26.2406 9.93986 26.6661 8.34285 27.517 6.93272C28.368 5.52259 29.5338 4.42677 31.0145 3.64526C32.5123 2.84675 34.1972 2.4475 36.0693 2.4475C37.7032 2.4475 39.1754 2.73632 40.4859 3.31396C41.7964 3.8916 42.8856 4.72409 43.7536 5.81141L40.5369 8.71661C39.3796 7.32348 37.9755 6.62691 36.3246 6.62691C35.3545 6.62691 34.4865 6.83928 33.7206 7.26401C32.9718 7.68875 32.3846 8.29188 31.9591 9.07339C31.5507 9.83792 31.3464 10.7214 31.3464 11.7237C31.3464 12.7261 31.5507 13.6181 31.9591 14.3996C32.3846 15.1641 32.9718 15.7587 33.7206 16.1835C34.4865 16.6082 35.3545 16.8206 36.3246 16.8206C37.9755 16.8206 39.3796 16.124 40.5369 14.7309L43.7536 17.6361C42.8856 18.7234 41.7964 19.5559 40.4859 20.1335C39.1754 20.7112 37.7032 21 36.0693 21Z" fill="#4985FF"/>
<path d="M55.9216 21C54.0325 21 52.3305 20.6007 50.8158 19.8022C49.3181 19.0037 48.1352 17.8994 47.2672 16.4893C46.4163 15.0792 45.9908 13.4907 45.9908 11.7237C45.9908 9.95684 46.4163 8.36833 47.2672 6.9582C48.1352 5.54808 49.3181 4.44376 50.8158 3.64526C52.3305 2.84675 54.0325 2.4475 55.9216 2.4475C57.8108 2.4475 59.5042 2.84675 61.0019 3.64526C62.5167 4.44376 63.6995 5.54808 64.5505 6.9582C65.4185 8.36833 65.8525 9.95684 65.8525 11.7237C65.8525 13.4907 65.4185 15.0792 64.5505 16.4893C63.6995 17.8994 62.5167 19.0037 61.0019 19.8022C59.5042 20.6007 57.8108 21 55.9216 21ZM55.9216 16.8206C56.8237 16.8206 57.6406 16.6082 58.3724 16.1835C59.1043 15.7587 59.6829 15.1641 60.1084 14.3996C60.5339 13.6181 60.7466 12.7261 60.7466 11.7237C60.7466 10.7214 60.5339 9.83792 60.1084 9.07339C59.6829 8.29188 59.1043 7.68875 58.3724 7.26401C57.6406 6.83928 56.8237 6.62691 55.9216 6.62691C55.0196 6.62691 54.2027 6.83928 53.4708 7.26401C52.739 7.68875 52.1603 8.29188 51.7348 9.07339C51.3094 9.83792 51.0966 10.7214 51.0966 11.7237C51.0966 12.7261 51.3094 13.6181 51.7348 14.3996C52.1603 15.1641 52.739 15.7587 53.4708 16.1835C54.2027 16.6082 55.0196 16.8206 55.9216 16.8206Z" fill="#4985FF"/>
<path d="M73.3309 6.8053H67.8422V2.80428H83.8489V6.8053H78.3857V20.6432H73.3309V6.8053Z" fill="#4985FF"/>
<path d="M96.1582 14.2467V20.6432H91.1034V14.1702L84.2871 2.80428H89.6227L93.8606 9.88889L98.0984 2.80428H103L96.1582 14.2467Z" fill="#4985FF"/>
<path d="M44.6083 0L53.0376 4.8024L46.2461 9.54946L44.6083 0Z" fill="#4985FF"/>
<path d="M67.4235 0.0749477L58.5225 5.41401L65.4418 10.2505L67.4235 0.0749477Z" fill="#4985FF"/>
</svg>
