<svg width="18" height="19" viewBox="0 0 18 19" fill="none" xmlns="http://www.w3.org/2000/svg">
<path d="M12.5 11.6719H11.71L11.43 11.3854C12.41 10.1757 13 8.60535 13 6.89701C13 3.08774 10.09 0 6.5 0C2.91 0 0 3.08774 0 6.89701C0 10.7063 2.91 13.794 6.5 13.794C8.11 13.794 9.58999 13.168 10.73 12.1281L11 12.4252V13.2635L16 18.5583L17.49 16.9773L12.5 11.6719ZM6.5 11.6719C4.01 11.6719 2 9.53909 2 6.89701C2 4.25492 4.01 2.12216 6.5 2.12216C8.99 2.12216 11 4.25492 11 6.89701C11 9.53909 8.99 11.6719 6.5 11.6719Z" fill="#424242"/>
</svg>
