<svg width="210" height="46" viewBox="0 0 210 46" fill="none" xmlns="http://www.w3.org/2000/svg">
<path d="M2 7.60864H12.1095V43.2865H2V7.60864Z" fill="white"/>
<path d="M29.4626 15.6107H18.4851V7.60864H50.4986V15.6107H39.5721V43.2865H29.4626V15.6107Z" fill="white"/>
<path d="M74.1386 44C70.3944 44 67.0245 43.2185 64.0291 41.6555C61.0677 40.0584 58.736 37.8498 57.0341 35.0296C55.3321 32.2093 54.4812 29.0153 54.4812 25.4475C54.4812 21.8797 55.3321 18.6857 57.0341 15.8654C58.736 13.0452 61.0677 10.8535 64.0291 9.29053C67.0245 7.69352 70.3944 6.89502 74.1386 6.89502C77.4064 6.89502 80.3507 7.47266 82.9717 8.62795C85.5927 9.78323 87.7712 11.4482 89.5072 13.6228L83.0738 19.4332C80.7592 16.647 77.951 15.2538 74.6492 15.2538C72.709 15.2538 70.973 15.6786 69.4413 16.528C67.9436 17.3775 66.7692 18.5838 65.9182 20.1468C65.1013 21.6758 64.6928 23.4427 64.6928 25.4475C64.6928 27.4523 65.1013 29.2362 65.9182 30.7992C66.7692 32.3282 67.9436 33.5175 69.4413 34.367C70.973 35.2164 72.709 35.6412 74.6492 35.6412C77.951 35.6412 80.7592 34.248 83.0738 31.4618L89.5072 37.2722C87.7712 39.4468 85.5927 41.1118 82.9717 42.2671C80.3507 43.4224 77.4064 44 74.1386 44Z" fill="white"/>
<path d="M113.843 44C110.065 44 106.661 43.2015 103.632 41.6045C100.636 40.0075 98.2705 37.7988 96.5345 34.9786C94.8325 32.1583 93.9816 28.9813 93.9816 25.4475C93.9816 21.9137 94.8325 18.7367 96.5345 15.9164C98.2705 13.0962 100.636 10.8875 103.632 9.29053C106.661 7.69352 110.065 6.89502 113.843 6.89502C117.622 6.89502 121.008 7.69352 124.004 9.29053C127.033 10.8875 129.399 13.0962 131.101 15.9164C132.837 18.7367 133.705 21.9137 133.705 25.4475C133.705 28.9813 132.837 32.1583 131.101 34.9786C129.399 37.7988 127.033 40.0075 124.004 41.6045C121.008 43.2015 117.622 44 113.843 44ZM113.843 35.6412C115.647 35.6412 117.281 35.2164 118.745 34.367C120.209 33.5175 121.366 32.3282 122.217 30.7992C123.068 29.2362 123.493 27.4523 123.493 25.4475C123.493 23.4427 123.068 21.6758 122.217 20.1468C121.366 18.5838 120.209 17.3775 118.745 16.528C117.281 15.6786 115.647 15.2538 113.843 15.2538C112.039 15.2538 110.405 15.6786 108.942 16.528C107.478 17.3775 106.321 18.5838 105.47 20.1468C104.619 21.6758 104.193 23.4427 104.193 25.4475C104.193 27.4523 104.619 29.2362 105.47 30.7992C106.321 32.3282 107.478 33.5175 108.942 34.367C110.405 35.2164 112.039 35.6412 113.843 35.6412Z" fill="white"/>
<path d="M148.662 15.6107H137.684V7.60864H169.698V15.6107H158.771V43.2865H148.662V15.6107Z" fill="white"/>
<path d="M194.316 30.4935V43.2865H184.207V30.3406L170.574 7.60864H181.245L189.721 21.7779L198.197 7.60864H208L194.316 30.4935Z" fill="white"/>
<path d="M91.2167 2L108.075 11.6048L94.4922 21.0989L91.2167 2Z" fill="white"/>
<path d="M136.847 2.1499L119.045 12.828L132.884 22.5009L136.847 2.1499Z" fill="white"/>
<path d="M2 7.60547H12.1095V43.2834H2V7.60547Z" fill="black"/>
<path d="M29.4626 15.6075H18.4851V7.60547H50.4986V15.6075H39.5721V43.2834H29.4626V15.6075Z" fill="black"/>
</svg>
