<svg width="96" height="19" viewBox="0 0 96 19" fill="none" xmlns="http://www.w3.org/2000/svg">
<path d="M6.408 1.31H7.596L9.396 5.846L11.214 1.31H12.42L10.188 6.764L12.636 12.542L17.262 1.22H18.63L13.212 14H12.096L9.414 7.682L6.714 14H5.616L0.216 1.22H1.566L6.21 12.542L8.64 6.764L6.408 1.31ZM18.471 11.3C18.471 10.724 18.639 10.226 18.975 9.806C19.311 9.374 19.773 9.038 20.361 8.798C20.961 8.558 21.651 8.438 22.431 8.438C22.887 8.438 23.361 8.48 23.853 8.564C24.345 8.636 24.783 8.738 25.167 8.87V8.078C25.167 7.286 24.933 6.656 24.465 6.188C23.997 5.72 23.349 5.486 22.521 5.486C22.029 5.486 21.537 5.582 21.045 5.774C20.553 5.954 20.043 6.224 19.515 6.584L19.047 5.72C19.659 5.3 20.259 4.988 20.847 4.784C21.435 4.568 22.035 4.46 22.647 4.46C23.799 4.46 24.711 4.79 25.383 5.45C26.055 6.11 26.391 7.022 26.391 8.186V12.524C26.391 12.848 26.541 13.016 26.841 13.028V14C26.577 14.036 26.391 14.048 26.283 14.036C25.983 14.024 25.755 13.928 25.599 13.748C25.443 13.568 25.359 13.376 25.347 13.172L25.329 12.488C24.909 13.028 24.363 13.448 23.691 13.748C23.019 14.036 22.335 14.18 21.639 14.18C21.027 14.18 20.481 14.054 20.001 13.802C19.521 13.538 19.143 13.19 18.867 12.758C18.603 12.314 18.471 11.828 18.471 11.3ZM24.753 12.02C25.029 11.696 25.167 11.396 25.167 11.12V9.752C24.339 9.428 23.475 9.266 22.575 9.266C21.699 9.266 20.991 9.44 20.451 9.788C19.911 10.136 19.641 10.61 19.641 11.21C19.641 11.726 19.839 12.194 20.235 12.614C20.643 13.034 21.207 13.244 21.927 13.244C22.515 13.244 23.061 13.13 23.565 12.902C24.081 12.674 24.477 12.38 24.753 12.02ZM33.7155 5.702C32.8995 5.726 32.1795 5.954 31.5555 6.386C30.9435 6.818 30.5115 7.412 30.2595 8.168V14H29.0355V4.622H30.1875V6.872C30.5115 6.212 30.9375 5.678 31.4655 5.27C32.0055 4.862 32.5755 4.634 33.1755 4.586C33.2955 4.574 33.3975 4.568 33.4815 4.568C33.5655 4.568 33.6435 4.574 33.7155 4.586V5.702ZM38.862 14.126C38.214 14.126 37.62 13.994 37.08 13.73C36.552 13.466 36.09 13.112 35.694 12.668C35.31 12.212 35.01 11.696 34.794 11.12C34.578 10.544 34.47 9.95 34.47 9.338C34.47 8.462 34.656 7.658 35.028 6.926C35.4 6.182 35.91 5.588 36.558 5.144C37.218 4.688 37.974 4.46 38.826 4.46C39.63 4.46 40.326 4.664 40.914 5.072C41.514 5.48 42.018 5.984 42.426 6.584V4.622H43.524V14.036C43.524 14.912 43.314 15.644 42.894 16.232C42.474 16.82 41.916 17.264 41.22 17.564C40.524 17.864 39.762 18.014 38.934 18.014C37.854 18.014 36.984 17.822 36.324 17.438C35.676 17.054 35.142 16.538 34.722 15.89L35.478 15.296C35.85 15.884 36.342 16.322 36.954 16.61C37.578 16.898 38.238 17.042 38.934 17.042C39.546 17.042 40.104 16.928 40.608 16.7C41.124 16.484 41.532 16.154 41.832 15.71C42.144 15.266 42.3 14.708 42.3 14.036V12.182C41.94 12.77 41.448 13.244 40.824 13.604C40.2 13.952 39.546 14.126 38.862 14.126ZM39.204 13.1C39.696 13.1 40.164 12.986 40.608 12.758C41.052 12.53 41.424 12.242 41.724 11.894C42.036 11.534 42.228 11.162 42.3 10.778V7.88C42.12 7.424 41.862 7.022 41.526 6.674C41.19 6.314 40.806 6.038 40.374 5.846C39.942 5.642 39.504 5.54 39.06 5.54C38.364 5.54 37.764 5.732 37.26 6.116C36.768 6.488 36.384 6.968 36.108 7.556C35.844 8.132 35.712 8.732 35.712 9.356C35.712 10.028 35.868 10.652 36.18 11.228C36.492 11.792 36.912 12.248 37.44 12.596C37.968 12.932 38.556 13.1 39.204 13.1ZM45.471 11.3C45.471 10.724 45.639 10.226 45.975 9.806C46.311 9.374 46.773 9.038 47.361 8.798C47.961 8.558 48.651 8.438 49.431 8.438C49.887 8.438 50.361 8.48 50.853 8.564C51.345 8.636 51.783 8.738 52.167 8.87V8.078C52.167 7.286 51.933 6.656 51.465 6.188C50.997 5.72 50.349 5.486 49.521 5.486C49.029 5.486 48.537 5.582 48.045 5.774C47.553 5.954 47.043 6.224 46.515 6.584L46.047 5.72C46.659 5.3 47.259 4.988 47.847 4.784C48.435 4.568 49.035 4.46 49.647 4.46C50.799 4.46 51.711 4.79 52.383 5.45C53.055 6.11 53.391 7.022 53.391 8.186V12.524C53.391 12.848 53.541 13.016 53.841 13.028V14C53.577 14.036 53.391 14.048 53.283 14.036C52.983 14.024 52.755 13.928 52.599 13.748C52.443 13.568 52.359 13.376 52.347 13.172L52.329 12.488C51.909 13.028 51.363 13.448 50.691 13.748C50.019 14.036 49.335 14.18 48.639 14.18C48.027 14.18 47.481 14.054 47.001 13.802C46.521 13.538 46.143 13.19 45.867 12.758C45.603 12.314 45.471 11.828 45.471 11.3ZM51.753 12.02C52.029 11.696 52.167 11.396 52.167 11.12V9.752C51.339 9.428 50.475 9.266 49.575 9.266C48.699 9.266 47.991 9.44 47.451 9.788C46.911 10.136 46.641 10.61 46.641 11.21C46.641 11.726 46.839 12.194 47.235 12.614C47.643 13.034 48.207 13.244 48.927 13.244C49.515 13.244 50.061 13.13 50.565 12.902C51.081 12.674 51.477 12.38 51.753 12.02ZM69.9855 14H68.7615V8.762C68.7615 7.682 68.5875 6.884 68.2395 6.368C67.8915 5.84 67.3755 5.576 66.6915 5.576C65.9715 5.576 65.3355 5.828 64.7835 6.332C64.2315 6.836 63.8415 7.484 63.6135 8.276V14H62.3895V8.762C62.3895 7.658 62.2155 6.854 61.8675 6.35C61.5315 5.834 61.0215 5.576 60.3375 5.576C59.6295 5.576 58.9935 5.822 58.4295 6.314C57.8775 6.806 57.4875 7.454 57.2595 8.258V14H56.0355V4.622H57.1515V6.746C57.5355 6.026 58.0395 5.468 58.6635 5.072C59.2875 4.664 59.9775 4.46 60.7335 4.46C61.5135 4.46 62.1435 4.688 62.6235 5.144C63.1035 5.588 63.3975 6.164 63.5055 6.872C64.3695 5.264 65.5755 4.46 67.1235 4.46C68.1795 4.46 68.9175 4.832 69.3375 5.576C69.7695 6.308 69.9855 7.286 69.9855 8.51V14ZM72.5766 2.66V0.86H73.8006V2.66H72.5766ZM72.5766 14V4.622H73.8006V14H72.5766ZM84.3805 14H83.1565V8.762C83.1565 7.658 82.9885 6.854 82.6525 6.35C82.3285 5.834 81.8245 5.576 81.1405 5.576C80.6605 5.576 80.1865 5.696 79.7185 5.936C79.2505 6.164 78.8365 6.482 78.4765 6.89C78.1285 7.286 77.8765 7.742 77.7205 8.258V14H76.4965V4.622H77.6125V6.746C77.9845 6.062 78.5305 5.51 79.2505 5.09C79.9705 4.67 80.7505 4.46 81.5905 4.46C82.2865 4.46 82.8385 4.628 83.2465 4.964C83.6545 5.288 83.9425 5.756 84.1105 6.368C84.2905 6.968 84.3805 7.682 84.3805 8.51V14ZM90.7526 14.126C90.1046 14.126 89.5106 13.994 88.9706 13.73C88.4426 13.466 87.9806 13.112 87.5846 12.668C87.2006 12.212 86.9006 11.696 86.6846 11.12C86.4686 10.544 86.3606 9.95 86.3606 9.338C86.3606 8.462 86.5466 7.658 86.9186 6.926C87.2906 6.182 87.8006 5.588 88.4486 5.144C89.1086 4.688 89.8646 4.46 90.7166 4.46C91.5206 4.46 92.2166 4.664 92.8046 5.072C93.4046 5.48 93.9086 5.984 94.3166 6.584V4.622H95.4146V14.036C95.4146 14.912 95.2046 15.644 94.7846 16.232C94.3646 16.82 93.8066 17.264 93.1106 17.564C92.4146 17.864 91.6526 18.014 90.8246 18.014C89.7446 18.014 88.8746 17.822 88.2146 17.438C87.5666 17.054 87.0326 16.538 86.6126 15.89L87.3686 15.296C87.7406 15.884 88.2326 16.322 88.8446 16.61C89.4686 16.898 90.1286 17.042 90.8246 17.042C91.4366 17.042 91.9946 16.928 92.4986 16.7C93.0146 16.484 93.4226 16.154 93.7226 15.71C94.0346 15.266 94.1906 14.708 94.1906 14.036V12.182C93.8306 12.77 93.3386 13.244 92.7146 13.604C92.0906 13.952 91.4366 14.126 90.7526 14.126ZM91.0946 13.1C91.5866 13.1 92.0546 12.986 92.4986 12.758C92.9426 12.53 93.3146 12.242 93.6146 11.894C93.9266 11.534 94.1186 11.162 94.1906 10.778V7.88C94.0106 7.424 93.7526 7.022 93.4166 6.674C93.0806 6.314 92.6966 6.038 92.2646 5.846C91.8326 5.642 91.3946 5.54 90.9506 5.54C90.2546 5.54 89.6546 5.732 89.1506 6.116C88.6586 6.488 88.2746 6.968 87.9986 7.556C87.7346 8.132 87.6026 8.732 87.6026 9.356C87.6026 10.028 87.7586 10.652 88.0706 11.228C88.3826 11.792 88.8026 12.248 89.3306 12.596C89.8586 12.932 90.4466 13.1 91.0946 13.1Z" fill="#4985FF"/>
</svg>
